<svg width="261" height="262" viewBox="0 0 261 262" fill="none" xmlns="http://www.w3.org/2000/svg">
<path d="M34.4498 25.7254L34.5178 25.7248L37.4317 25.7013L37.4425 25.7012C39.1412 25.7013 40.2932 25.6991 41.1273 25.6038C41.9702 25.5074 42.1814 25.3421 42.248 25.2719C42.3244 25.1915 42.4853 24.9466 42.5661 24.0603C42.6436 23.2105 42.6302 22.0561 42.6109 20.3846L42.6096 20.2723C42.6096 20.2715 42.6096 20.2708 42.6096 20.27C42.6057 20.0119 42.5874 19.8448 42.5677 19.7403C42.4502 19.7211 42.2686 19.7069 41.9879 19.7065C39.8861 19.7393 37.8535 19.734 35.8341 19.7287C33.3976 19.7223 30.9801 19.7159 28.4832 19.7766C27.6435 19.7974 26.6048 19.7042 25.8927 18.9209C25.2133 18.1736 25.1784 17.1605 25.2055 16.4107C25.2569 14.4565 25.2398 12.5149 25.2225 10.5461C25.2137 9.54721 25.2049 8.54136 25.2049 7.52333C25.2049 5.82655 25.2027 4.67561 25.1074 3.84196C25.011 2.99954 24.8458 2.78825 24.7755 2.72157C24.6952 2.64535 24.4505 2.48432 23.5647 2.40404C22.7107 2.32664 21.5485 2.34138 19.8626 2.36278L19.7731 2.36391L19.7694 2.36396C19.5096 2.36654 19.3415 2.38414 19.2364 2.40346C19.2172 2.51977 19.2029 2.69949 19.2025 2.97675C19.2387 5.06872 19.2348 7.15968 19.2309 9.23482C19.2306 9.40904 19.2303 9.58315 19.23 9.75713C19.226 12.0127 19.2261 14.2506 19.2805 16.4829L19.2806 16.489C19.2972 17.3274 19.2032 18.3653 18.4252 19.0773C17.678 19.761 16.6641 19.7957 15.9146 19.7685C13.9605 19.7171 12.0189 19.7342 10.0502 19.7515C9.05135 19.7603 8.04553 19.7692 7.02753 19.7692C5.32883 19.7692 4.17693 19.7713 3.34292 19.8667C2.49999 19.9631 2.28956 20.1283 2.22361 20.1979C2.14789 20.2778 1.98718 20.5222 1.90742 21.4086C1.83094 22.2584 1.8456 23.4127 1.86683 25.0843L1.86831 25.2012L1.86836 25.2049C1.8709 25.46 1.88791 25.6262 1.90669 25.7308C2.02422 25.7497 2.20475 25.7636 2.48223 25.7639C4.5874 25.7312 6.62217 25.7365 8.64226 25.7418C11.079 25.7482 13.4944 25.7545 15.9862 25.6938L34.4498 25.7254ZM34.4498 25.7254L34.3821 25.7327M34.4498 25.7254L34.3821 25.7327M34.3821 25.7327C33.9643 25.7784 33.4283 25.749 32.7483 25.6749C32.5299 25.6511 32.2846 25.621 32.0272 25.5895C31.5613 25.5323 31.0557 25.4702 30.5967 25.4318C29.2334 25.3176 27.2534 25.2817 25.9796 26.7072C25.406 27.3474 25.1431 28.1355 25.0199 28.8703C24.8964 29.6073 24.8958 30.3993 24.9334 31.1507C24.963 31.7433 25.0199 32.365 25.0738 32.9527C25.0881 33.1088 25.1022 33.2625 25.1155 33.4126C25.181 34.1519 25.2294 34.8228 25.2207 35.4209L25.2205 35.4307M34.3821 25.7327L25.2205 35.4307M25.2205 35.4307V35.4405M25.2205 35.4307V35.4405M25.2205 35.4405V35.4458V35.4511V35.4563V35.4616V35.4669V35.4722V35.4775V35.4827V35.488V35.4933V35.4986V35.5039V35.5091V35.5144V35.5197V35.525V35.5303V35.5355V35.5408V35.5461V35.5514V35.5567V35.562V35.5672V35.5725V35.5778V35.5831V35.5884V35.5936V35.5989V35.6042V35.6095V35.6148V35.6201V35.6253V35.6306V35.6359V35.6412V35.6465V35.6518V35.6571V35.6623V35.6676V35.6729V35.6782V35.6835V35.6888V35.694V35.6993V35.7046V35.7099V35.7152V35.7205V35.7258V35.7311V35.7363V35.7416V35.7469V35.7522V35.7575V35.7628V35.7681V35.7734V35.7786V35.7839V35.7892V35.7945V35.7998V35.8051V35.8104V35.8157V35.821V35.8262V35.8315V35.8368V35.8421V35.8474V35.8527V35.858V35.8633V35.8686V35.8739V35.8791V35.8844V35.8897V35.895V35.9003V35.9056V35.9109V35.9162V35.9215V35.9268V35.9321V35.9373V35.9426V35.9479V35.9532V35.9585V35.9638V35.9691V35.9744V35.9797V35.985V35.9903V35.9956V36.0009V36.0062V36.0114V36.0167V36.022V36.0273V36.0326V36.0379V36.0432V36.0485V36.0538V36.0591V36.0644V36.0697V36.075V36.0803V36.0856V36.0909V36.0962V36.1014V36.1067V36.112V36.1173V36.1226V36.1279V36.1332V36.1385V36.1438V36.1491V36.1544V36.1597V36.165V36.1703V36.1756V36.1809V36.1862V36.1915V36.1968V36.2021V36.2074V36.2127V36.218V36.2233V36.2286V36.2339V36.2392V36.2444V36.2497V36.255V36.2603V36.2656V36.2709V36.2762V36.2815V36.2868V36.2921V36.2974V36.3027V36.308V36.3133V36.3186V36.3239V36.3292V36.3345V36.3398V36.3451V36.3504V36.3557V36.361V36.3663V36.3716V36.3769V36.3822V36.3875V36.3928V36.3981V36.4034V36.4087V36.414V36.4193V36.4246V36.4299V36.4352V36.4405V36.4458V36.4511V36.4564V36.4617V36.467V36.4723V36.4776V36.4829V36.4882V36.4935V36.4988V36.5041V36.5094V36.5147V36.52V36.5253V36.5306V36.5359V36.5412V36.5465V36.5518V36.5571V36.5624V36.5677V36.573V36.5783V36.5836V36.5889V36.5942V36.5995V36.6048V36.6101V36.6154V36.6207V36.626V36.6313V36.6366V36.6419V36.6472V36.6525V36.6578V36.6631V36.6684V36.6737V36.679V36.6843V36.6896V36.6949V36.7002V36.7055V36.7108V36.7161V36.7214V36.7267V36.732V36.7373V36.7426V36.7479V36.7532V36.7585V36.7638V36.7691V36.7744V36.7797V36.785V36.7903V36.7956V36.8009V36.8062V36.8115V36.8168V36.8221V36.8274V36.8327V36.838V36.8433V36.8486V36.8539V36.8592V36.8646V36.8699V36.8752V36.8805V36.8858V36.8911V36.8964V36.9017V36.907V36.9123V36.9176V36.9229V36.9282V36.9335V36.9388V36.9441V36.9494V36.9547V36.96V36.9653V36.9706V36.9759V36.9812V36.9865V36.9918V36.9971V37.0024V37.0077V37.013V37.0183V37.0236V37.0289V37.0342V37.0395V37.0448V37.0501V37.0554V37.0607V37.066V37.0713V37.0766V37.0819V37.0872V37.0925V37.0978V37.1031V37.1084V37.1137V37.119V37.1243V37.1296V37.1349V37.1402V37.1455V37.1508V37.1561V37.1614V37.1667V37.172V37.1773V37.1826V37.1879V37.1932V37.1985V37.2038V37.2091V37.2144V37.2197V37.225V37.2303V37.2356V37.2409V37.2462V37.2515V37.2568V37.2621V37.2674V37.2727V37.278V37.2832V37.2885V37.2938V37.2991V37.3044V37.3097V37.315V37.3203V37.3256V37.3309V37.3362V37.3415V37.3468V37.3521V37.3574V37.3627V37.368V37.3733V37.3786V37.3839V37.3892V37.3945V37.3998V37.4051V37.4104V37.4157V37.421V37.4263V37.4316V37.4369V37.4422V37.4475V37.4528V37.458V37.4633V37.4686V37.4739V37.4792V37.4845V37.4898V37.4951V37.5004V37.5057V37.511V37.5163V37.5216V37.5269V37.5322V37.5375V37.5428V37.5481V37.5534V37.5586V37.5639V37.5692V37.5745V37.5798V37.5851V37.5904V37.5957V37.601V37.6063V37.6116V37.6169V37.6222V37.6275V37.6328V37.638V37.6433V37.6486V37.6539V37.6592V37.6645V37.6698V37.6751V37.6804V37.6857V37.691V37.6963V37.7015V37.7068V37.7121V37.7174V37.7227V37.728V37.7333V37.7386V37.7439V37.7492V37.7544V37.7597V37.765V37.7703V37.7756V37.7809V37.7862V37.7915V37.7968V37.802V37.8073V37.8126V37.8179V37.8232V37.8285V37.8338V37.8391V37.8444V37.8496V37.8549V37.8602V37.8655V37.8708V37.8761V37.8814V37.8866V37.8919V37.8972V37.9025V37.9078V37.9131V37.9184V37.9236V37.9289V37.9342V37.9395V37.9448V37.9501V37.9554V37.9606V37.9659V37.9712V37.9765V37.9818V37.9871V37.9923V37.9976V38.0029V38.0082V38.0135V38.0188V38.024V38.0293V38.0346V38.0399V38.0452V38.0504V38.0557V38.061V38.0663V38.0716V38.0769V38.0821V38.0874V38.0927V38.098V38.1033V38.1085V38.1138V38.1191V38.1244V38.1297V38.1349V38.1402V38.1455V38.1508C25.2205 39.8566 25.1794 41.0516 25.0343 41.9079C24.8896 42.7626 24.6778 43.043 24.5335 43.1623C24.3767 43.2919 24.0261 43.4581 23.0991 43.4729C22.1886 43.4875 20.9572 43.357 19.2349 43.1243L25.2205 35.4405ZM17.9231 42.5373L19.273 42.5256C19.2338 38.0186 19.1949 33.5243 19.2729 29.033L19.2731 29.0213V29.0095C19.2731 28.2932 19.2278 27.2921 18.5716 26.5574C17.8645 25.7656 16.8297 25.673 15.9868 25.6938L17.9231 42.5373Z" fill="#338080" stroke="#FFFCF5" stroke-width="2.7"/>
<path d="M46.8158 46.6684L46.8154 46.7054L46.8171 46.7425C46.8372 47.1805 46.8177 47.6737 46.786 48.2306C46.7795 48.3435 46.7725 48.46 46.7654 48.5789C46.7387 49.0215 46.71 49.4979 46.7014 49.9519C46.6904 50.5308 46.709 51.1559 46.8238 51.7496C46.9387 52.344 47.1658 52.9912 47.6356 53.5375C48.159 54.1463 48.8499 54.4272 49.474 54.5569C50.0905 54.6851 50.7451 54.6877 51.3365 54.6566C51.8328 54.6305 52.3532 54.5756 52.8278 54.5256C52.9206 54.5158 53.0116 54.5062 53.1003 54.497C53.6697 54.4382 54.1582 54.3957 54.5782 54.399L54.5795 54.399L54.6326 54.3993C56.3604 54.4111 57.5435 54.4192 58.4063 54.5178C59.2916 54.619 59.5263 54.7893 59.6037 54.8689C59.6815 54.949 59.8452 55.1898 59.9221 56.0797C59.9968 56.9458 59.9726 58.1292 59.9373 59.856L59.9361 59.9145L59.9358 59.9283V59.9421C59.9358 60.1563 59.9265 60.3077 59.9133 60.4138C59.8311 60.4206 59.7157 60.4241 59.5583 60.4182C57.9611 60.3583 56.3579 60.3585 54.7766 60.3644C54.6007 60.365 54.4251 60.3658 54.2498 60.3665C52.8413 60.3723 51.4521 60.378 50.0679 60.3471L50.0529 60.3468H50.0378C49.371 60.3468 48.4057 60.3896 47.6929 61.028C46.9217 61.7187 46.838 62.7217 46.8634 63.5179L46.8637 63.5255C46.9213 65.0614 46.9215 66.613 46.9156 68.1922C46.915 68.367 46.9142 68.5421 46.9135 68.7176C46.9077 70.1201 46.9018 71.5451 46.9335 72.9674L46.9338 72.9758C46.9391 73.1625 46.9345 73.2951 46.926 73.3879C46.8288 73.4029 46.6868 73.4162 46.484 73.4205L46.3976 73.4224C44.6781 73.4594 43.4939 73.4848 42.6242 73.4123C41.7242 73.3372 41.4751 73.1736 41.3914 73.0937C41.3131 73.0189 41.1421 72.7906 41.0414 71.914C40.9421 71.0499 40.9369 69.8585 40.9309 68.11C40.931 67.6588 40.9663 67.1564 41.0099 66.5929C41.0139 66.5411 41.018 66.4887 41.0221 66.4359C41.0614 65.9322 41.1041 65.3842 41.1184 64.8558C41.1342 64.273 41.1183 63.6478 41.0068 63.0545C40.8955 62.4621 40.6733 61.8164 40.212 61.2712C39.6922 60.6569 38.9989 60.3759 38.3782 60.2461C37.7636 60.1176 37.1089 60.1133 36.5167 60.1428C36.0157 60.1677 35.4903 60.2217 35.0109 60.2708C34.9212 60.28 34.8332 60.2891 34.7472 60.2977C34.1754 60.3552 33.6842 60.3971 33.2624 60.3938V60.3938H33.2519C31.4972 60.3938 30.2998 60.3917 29.4313 60.2944C28.5502 60.1958 28.3172 60.0246 28.2402 59.9448C28.1599 59.8616 27.9955 59.6147 27.9186 58.7201C27.8438 57.8497 27.8681 56.6621 27.9034 54.9341L27.9046 54.8782L27.9049 54.8644V54.8506C27.9049 54.6407 27.9138 54.4916 27.9264 54.3865C28.0093 54.3799 28.125 54.3765 28.2824 54.3824L28.2857 54.3825C29.8809 54.4384 31.4824 54.4382 33.0641 54.4323C33.2543 54.4316 33.4442 54.4308 33.6338 54.43C35.0258 54.4242 36.4005 54.4185 37.7704 54.4456C38.4603 54.465 39.4348 54.43 40.1558 53.7722C40.9191 53.076 40.9987 52.0696 40.9692 51.2767C40.9154 49.7394 40.9152 48.1848 40.9211 46.6044C40.9218 46.4157 40.9226 46.2266 40.9234 46.0371C40.9292 44.6464 40.9351 43.2354 40.9072 41.8287L40.9072 41.8287L40.9069 41.8169C40.9017 41.6346 40.906 41.5041 40.914 41.4123C41.0119 41.3974 41.1542 41.3844 41.3567 41.3801L41.3583 41.38L41.4426 41.3781C43.1574 41.3392 44.3385 41.3123 45.2051 41.3839C46.1032 41.458 46.3442 41.6214 46.4208 41.6953C46.492 41.764 46.6606 41.9864 46.7513 42.8636C46.8406 43.7272 46.8318 44.9191 46.8158 46.6684Z" fill="#338080" stroke="#FFFCF5" stroke-width="2.7"/>
<path d="M247.132 138.898L247.13 138.897C246.058 138.826 245.326 138.775 244.797 138.679C244.263 138.583 244.115 138.468 244.061 138.406C244.005 138.341 243.908 138.173 243.878 137.62C243.847 137.072 243.885 136.327 243.943 135.24H243.943L243.943 135.237C244.003 134.042 244.046 133.215 244.142 132.611C244.238 132.002 244.367 131.789 244.467 131.691C244.564 131.597 244.769 131.48 245.361 131.413C245.952 131.346 246.756 131.345 247.925 131.345C248.933 131.351 249.604 131.356 250.087 131.424C250.561 131.49 250.67 131.593 250.712 131.644C250.781 131.728 250.886 131.945 250.939 132.577C250.99 133.192 250.982 134.029 250.97 135.225C250.956 136.453 250.946 137.304 250.871 137.921C250.796 138.553 250.672 138.738 250.6 138.806C250.534 138.869 250.357 138.979 249.748 139.007C249.148 139.034 248.326 138.979 247.132 138.898Z" fill="#338080" stroke="#FFFCF5" stroke-width="1.7"/>
<path d="M135.081 251.45C133.939 251.464 133.152 251.472 132.576 251.415C131.988 251.358 131.811 251.247 131.743 251.18C131.676 251.115 131.563 250.947 131.499 250.371C131.434 249.802 131.433 249.021 131.433 247.882C131.433 246.831 131.434 246.115 131.493 245.591C131.552 245.065 131.654 244.906 131.716 244.842C131.779 244.777 131.94 244.667 132.473 244.583C133.002 244.5 133.728 244.465 134.79 244.415C135.852 244.365 136.585 244.331 137.13 244.363C137.677 244.395 137.87 244.49 137.958 244.561C138.04 244.628 138.165 244.785 138.286 245.296C138.407 245.81 138.491 246.523 138.605 247.57C138.64 247.921 138.673 248.242 138.703 248.536C138.803 249.502 138.873 250.184 138.887 250.691C138.898 251.091 138.865 251.265 138.848 251.329C138.825 251.336 138.789 251.345 138.737 251.353C138.58 251.38 138.355 251.393 138.014 251.396C137.852 251.398 137.671 251.398 137.469 251.397C136.854 251.396 136.053 251.394 135.081 251.45Z" fill="#338080" stroke="#FFFCF5" stroke-width="1.7"/>
<path d="M242.6 104.257L242.582 104.263L242.564 104.27C241.482 104.696 241.132 104.522 240.987 104.403C240.877 104.312 240.749 104.145 240.617 103.834C240.485 103.524 240.371 103.126 240.258 102.625L240.257 102.623L240.234 102.522C239.93 101.197 239.719 100.277 239.635 99.5779C239.549 98.8634 239.621 98.5476 239.732 98.3538C239.849 98.1509 240.104 97.9166 240.785 97.5929C241.363 97.3183 242.127 97.0312 243.169 96.64C243.35 96.5719 243.54 96.5007 243.738 96.4259C245.05 95.9342 245.546 96.0166 245.751 96.141C245.85 96.2007 245.974 96.3229 246.104 96.6112C246.238 96.9066 246.353 97.3235 246.456 97.901C246.666 99.1014 247.021 100.318 247.333 101.389C247.458 101.817 247.576 102.222 247.675 102.593C247.712 102.825 247.7 102.945 247.69 102.993C247.69 102.993 247.689 102.993 247.689 102.994C247.672 103.003 247.638 103.019 247.58 103.038C247.47 103.074 247.338 103.102 247.141 103.144C245.598 103.379 244.078 103.752 242.6 104.257Z" fill="#338080" stroke="#FFFCF5" stroke-width="1.7"/>
<path d="M56.1703 216.691C57.18 217.569 58.1944 218.429 59.2763 219.34L56.962 222.257L56.9609 222.258C56.3004 223.095 55.8468 223.667 55.4734 224.049C55.0916 224.439 54.9241 224.488 54.8667 224.496C54.8217 224.502 54.6705 224.505 54.2474 224.23C53.8278 223.957 53.2984 223.518 52.5159 222.868L52.5159 222.868C51.4912 222.016 50.7793 221.423 50.3085 220.934C49.8294 220.437 49.7462 220.191 49.7376 220.057C49.729 219.924 49.7791 219.671 50.1898 219.12C50.5938 218.579 51.2235 217.904 52.1309 216.935L52.1312 216.935C52.7678 216.254 53.1978 215.796 53.5471 215.496C53.8996 215.193 54.0395 215.17 54.0803 215.167C54.1186 215.165 54.2554 215.17 54.6312 215.428C55.0048 215.685 55.4736 216.088 56.1703 216.691ZM56.1703 216.691C56.17 216.691 56.1697 216.691 56.1695 216.69L56.7271 216.049L56.1711 216.692C56.1708 216.691 56.1706 216.691 56.1703 216.691Z" fill="#338080" stroke="#FFFCF5" stroke-width="1.7"/>
<path d="M149.4 250.06L149.36 250.067C149.354 250.049 149.348 250.028 149.343 250.004C149.315 249.891 149.295 249.737 149.292 249.538C149.288 249.244 149.268 248.951 149.231 248.659L149.231 248.659L149.229 248.646C148.985 246.945 148.814 245.743 148.786 244.843C148.757 243.938 148.885 243.526 149.068 243.285C149.251 243.042 149.618 242.802 150.505 242.571C151.383 242.342 152.592 242.163 154.296 241.91L154.308 241.908C154.308 241.908 154.308 241.908 154.308 241.908C154.582 241.868 154.785 241.857 154.933 241.868C155.08 241.879 155.132 241.908 155.14 241.914C155.143 241.915 155.144 241.916 155.146 241.918C155.148 241.921 155.159 241.935 155.172 241.969C155.202 242.042 155.237 242.191 155.237 242.461V242.538L155.251 242.614C155.272 242.727 155.3 242.839 155.337 242.948C155.462 243.535 155.664 244.152 155.867 244.736C155.925 244.903 155.983 245.066 156.04 245.227C156.195 245.666 156.343 246.085 156.468 246.493C156.638 247.052 156.74 247.514 156.752 247.879C156.764 248.237 156.687 248.392 156.619 248.468C156.055 249.078 155.126 249.386 153.788 249.571C153.231 249.648 152.644 249.7 152.021 249.754C151.91 249.764 151.798 249.774 151.684 249.784C150.946 249.85 150.167 249.926 149.4 250.06ZM149.254 250.094C149.254 250.094 149.255 250.094 149.255 250.094L149.254 250.094Z" fill="#338080" stroke="#FFFCF5" stroke-width="1.7"/>
<path d="M84.1531 242.269C82.6224 241.604 80.8443 240.831 79.079 240.002C79.0875 239.987 79.0967 239.971 79.1066 239.954C79.1144 239.941 79.1229 239.926 79.1321 239.911C79.1626 239.859 79.1993 239.797 79.2314 239.74C79.2715 239.668 79.3195 239.578 79.361 239.478C79.6961 238.744 80.053 238.024 80.4162 237.291C80.4679 237.187 80.5196 237.083 80.5714 236.978C80.9878 236.136 81.4077 235.277 81.7893 234.393L81.7897 234.392C82.0303 233.833 82.1547 233.78 82.1549 233.78C82.1553 233.779 82.1566 233.779 82.1595 233.778C82.1624 233.777 82.1683 233.776 82.178 233.775C82.1977 233.773 82.2349 233.772 82.2955 233.779C82.4235 233.795 82.6153 233.846 82.902 233.96C84.5787 234.634 85.7849 235.144 86.6317 235.629C87.4823 236.117 87.8262 236.502 87.963 236.855C88.0992 237.207 88.1043 237.719 87.7991 238.645C87.4948 239.569 86.9359 240.751 86.1303 242.373L86.1258 242.382L86.1215 242.391C86.0746 242.491 86.0384 242.591 86.013 242.662C86.006 242.682 85.9997 242.7 85.9939 242.716C85.9755 242.768 85.9621 242.806 85.9463 242.846C85.9369 242.87 85.9289 242.888 85.9224 242.902C85.8444 242.906 85.6792 242.894 85.386 242.806C84.9987 242.637 84.5858 242.457 84.1531 242.269Z" fill="#338080" stroke="#FFFCF5" stroke-width="1.7"/>
<path d="M45.594 209.015L45.5941 209.015C46.0403 208.606 46.5415 208.208 47.0219 207.827C47.0317 207.819 47.0414 207.812 47.0511 207.804C46.9891 207.732 46.9289 207.663 46.8702 207.595C46.4177 207.073 46.0568 206.656 45.6533 206.263L46.2467 205.654M45.594 209.015L38.2552 208.603C37.8641 208.167 37.5993 207.815 37.4375 207.522C37.2773 207.232 37.245 207.047 37.2508 206.929C37.2608 206.726 37.4164 206.339 38.4384 205.69L38.4384 205.69L38.4413 205.689C39.0944 205.271 39.7418 204.661 40.3051 204.13C40.4852 203.96 40.6567 203.799 40.817 203.654C41.1742 203.332 41.4933 203.073 41.7922 202.892C42.0903 202.712 42.3196 202.641 42.5021 202.634C42.6096 202.63 42.7559 202.666 42.9765 202.844C43.2066 203.03 43.4526 203.319 43.7351 203.709C43.9048 203.944 44.0572 204.17 44.2187 204.41C44.3394 204.589 44.4652 204.776 44.6073 204.98C44.9131 205.418 45.2595 205.88 45.6547 206.264L46.2467 205.654M45.594 209.015L45.5876 209.021M45.594 209.015L45.5876 209.021M46.2467 205.654C46.6759 206.073 47.0729 206.531 47.5418 207.072C47.5983 207.137 47.6558 207.203 47.7145 207.271L37.9831 204.973C38.5627 204.602 39.1209 204.076 39.6707 203.559C40.6069 202.677 41.5189 201.819 42.4713 201.785C43.449 201.749 44.1809 202.834 44.9384 203.957C45.3522 204.57 45.7735 205.195 46.2467 205.654ZM45.5876 209.021C44.4419 210.093 43.6425 210.84 43.0002 211.318M45.5876 209.021L43.0002 211.318M43.0002 211.318C42.3511 211.802 42.0215 211.886 41.8084 211.871M43.0002 211.318L41.8084 211.871M41.8084 211.871C41.5862 211.857 41.2555 211.721 40.6427 211.157M41.8084 211.871L40.6427 211.157M40.6427 211.157C40.0912 210.65 39.432 209.915 38.5212 208.9M40.6427 211.157L38.5212 208.9M38.5212 208.9C38.435 208.804 38.3464 208.705 38.2555 208.604L38.5212 208.9Z" fill="#338080" stroke="#FFFCF5" stroke-width="1.7"/>
<path d="M248.369 157.345L248.369 157.345L248.369 157.345ZM247.816 156.938L247.776 156.928L247.734 156.922C245.874 156.639 244.538 156.421 243.57 156.146C242.596 155.869 242.167 155.578 241.952 155.27C241.738 154.966 241.613 154.472 241.693 153.479C241.772 152.49 242.035 151.181 242.422 149.362C242.491 149.042 242.533 148.85 242.573 148.72C242.579 148.72 242.586 148.719 242.593 148.719C242.769 148.715 243.013 148.731 243.403 148.759C243.498 148.78 243.607 148.807 243.728 148.836C244.12 148.929 244.625 149.05 245.104 149.117C245.577 149.187 246.126 149.227 246.654 149.263C246.705 149.267 246.755 149.27 246.806 149.274C247.295 149.307 247.767 149.339 248.197 149.389C248.683 149.445 249.039 149.516 249.261 149.603C249.278 149.61 249.292 149.616 249.305 149.621C249.393 150.777 249.246 151.985 249.004 153.26C248.884 153.887 248.744 154.517 248.601 155.162C248.592 155.205 248.582 155.248 248.573 155.291C248.444 155.87 248.315 156.461 248.201 157.053C248.074 157.009 247.946 156.971 247.816 156.938ZM249.394 149.669C249.394 149.669 249.389 149.666 249.382 149.659C249.391 149.665 249.395 149.668 249.394 149.669Z" fill="#338080" stroke="#FFFCF5" stroke-width="1.7"/>
<path d="M147.334 12.4363L147.282 12.5435L147.261 12.6611C147.106 13.5283 147.024 14.4315 146.951 15.229C146.914 15.6365 146.88 16.0164 146.84 16.3498C146.707 17.4386 146.511 18.1096 146.151 18.507C146.056 18.6119 145.923 18.6844 145.664 18.7047C145.379 18.7269 145.014 18.6794 144.54 18.5787C144.333 18.5347 144.121 18.4844 143.896 18.4308C143.868 18.4243 143.841 18.4177 143.813 18.4111C143.561 18.3513 143.294 18.2886 143.025 18.2348C142.494 18.1288 141.901 18.0454 141.317 18.0974L141.317 18.0974L141.313 18.0978C140.227 18.2003 139.877 18.0193 139.745 17.8793C139.587 17.7127 139.422 17.2898 139.484 16.1553C139.575 14.5153 139.643 13.3572 139.791 12.5189C139.94 11.67 140.14 11.3569 140.327 11.2104C140.52 11.0584 140.895 10.9307 141.797 10.9644C142.681 10.9976 143.874 11.1726 145.551 11.4255L145.562 11.4274C146.042 11.508 146.445 11.5757 146.786 11.6578C147.141 11.7429 147.346 11.8255 147.456 11.8968C147.477 11.9109 147.491 11.9219 147.499 11.9292C147.5 11.9744 147.487 12.1253 147.334 12.4363Z" fill="#338080" stroke="#FFFCF5" stroke-width="1.7"/>
<path d="M159.686 21.353L159.685 21.3526C159.248 21.1873 158.754 21.1095 158.326 21.0544C158.172 21.0346 158.028 21.0178 157.891 21.0017C157.611 20.9689 157.359 20.9394 157.11 20.8949C156.74 20.8286 156.534 20.7514 156.431 20.6809L156.428 20.6792C156.384 20.6489 156.375 20.6427 156.373 20.5641C156.352 19.4234 156.567 18.2484 156.881 17.0159C157.03 16.426 157.199 15.8349 157.372 15.2307C157.379 15.2044 157.387 15.178 157.395 15.1517C157.53 14.6764 157.668 14.1932 157.796 13.7078C157.804 13.7103 157.812 13.7128 157.821 13.7152C157.885 13.7336 157.981 13.7576 158.094 13.7667C158.289 13.7933 158.444 13.8114 158.58 13.8273C158.792 13.852 158.961 13.8717 159.168 13.91C160.875 14.288 162.121 14.6275 163.005 15.0111C163.891 15.3953 164.289 15.771 164.47 16.1466C164.653 16.527 164.701 17.0915 164.459 18.0578C164.218 19.0213 163.723 20.2525 162.982 21.8803C162.894 22.0737 162.83 22.1991 162.774 22.2875C162.768 22.2978 162.762 22.3069 162.756 22.3148C162.708 22.304 162.631 22.2813 162.519 22.234C161.985 22.0089 161.46 21.8649 160.99 21.7403C160.95 21.7297 160.911 21.7193 160.871 21.709C160.436 21.594 160.057 21.4936 159.686 21.353ZM157.419 13.5773C157.413 13.5763 157.412 13.5757 157.419 13.5771L157.419 13.5773Z" fill="#338080" stroke="#FFFCF5" stroke-width="1.7"/>
<path d="M11.5338 112.057L11.6355 111.892L11.656 111.7C11.6761 111.51 11.6865 111.389 11.6935 111.306L11.6939 111.302C11.6999 111.231 11.7019 111.214 11.7021 111.212L11.7058 111.192L11.7087 111.17C11.9446 109.33 12.1533 107.996 12.4316 107.043C12.7128 106.08 13.0172 105.681 13.3135 105.501C13.6107 105.32 14.1077 105.232 15.0968 105.423C16.0753 105.611 17.3607 106.033 19.1085 106.66L19.1247 106.666C19.4266 107.079 19.5482 107.462 19.5803 107.83C19.6186 108.271 19.5341 108.743 19.3727 109.296C19.2968 109.556 19.2091 109.818 19.115 110.098C19.1093 110.115 19.1036 110.132 19.0979 110.149C18.9995 110.443 18.8949 110.757 18.8056 111.077C18.6275 111.713 18.4911 112.432 18.583 113.192L18.583 113.192C18.6019 113.349 18.5861 113.433 18.5756 113.467C18.5736 113.473 18.5719 113.478 18.5707 113.48C18.547 113.493 18.4003 113.562 17.999 113.497C16.7448 113.286 15.4664 113.136 14.212 112.988C13.6751 112.925 13.1426 112.862 12.6183 112.795C12.275 112.752 11.9765 112.711 11.72 112.653C11.5101 112.606 11.3837 112.558 11.3139 112.521C11.3327 112.445 11.3858 112.296 11.5338 112.057ZM19.4224 106.711C19.4223 106.711 19.4207 106.711 19.4178 106.711L19.4224 106.711ZM18.5685 113.485C18.5685 113.485 18.5687 113.484 18.5693 113.483L18.5685 113.485Z" fill="#338080" stroke="#FFFCF5" stroke-width="1.7"/>
<path d="M21.4477 182.294L21.4513 182.3C21.4961 182.379 21.5349 182.459 21.566 182.524C21.5801 182.554 21.5942 182.584 21.607 182.612L21.6116 182.622C21.6261 182.653 21.6392 182.681 21.6523 182.708C21.6555 182.715 21.6586 182.721 21.6616 182.728C23.8499 181.726 26.0149 180.717 28.1043 179.591C28.0746 179.533 28.033 179.462 27.9763 179.373C27.9471 179.327 27.9215 179.288 27.8936 179.245C27.8748 179.216 27.855 179.186 27.8323 179.151C27.7833 179.075 27.7265 178.985 27.6756 178.893C27.6754 178.892 27.6752 178.892 27.675 178.892L28.4191 178.481C28.0141 177.75 27.7158 176.959 27.4158 176.163C26.915 174.835 26.4096 173.495 25.3956 172.402L21.4477 182.294ZM21.4477 182.294L21.4441 182.287C21.0649 181.643 20.751 180.962 20.5072 180.255C20.3477 179.766 20.0963 179.258 19.8512 178.794C19.7535 178.608 19.6586 178.433 19.5668 178.264C19.4127 177.979 19.2675 177.711 19.1329 177.44C18.9189 177.009 18.7936 176.686 18.7543 176.458C18.7443 176.4 18.7417 176.362 18.7417 176.338C19.5575 175.648 20.5905 175.149 21.7956 174.677C22.2391 174.504 22.7247 174.328 23.2281 174.146C23.8549 173.919 24.5094 173.682 25.1446 173.427L21.4477 182.294ZM18.7451 176.306C18.7455 176.306 18.7451 176.31 18.7426 176.317C18.7435 176.309 18.7447 176.305 18.7451 176.306ZM28.1576 179.721C28.1576 179.721 28.1574 179.72 28.1572 179.719L28.1576 179.721Z" fill="#338080" stroke="#FFFCF5" stroke-width="1.7"/>
<path d="M30.3219 197.973L30.3219 197.973L30.3171 197.967C29.1107 196.477 28.2615 195.367 27.7443 194.473C27.2232 193.572 27.1283 193.038 27.205 192.658C27.2816 192.278 27.575 191.825 28.4 191.2C29.2188 190.579 30.423 189.889 32.096 188.989L32.096 188.989L32.0992 188.987C32.5971 188.717 32.7536 188.718 32.773 188.72C32.7833 188.725 32.8164 188.744 32.8763 188.803C32.9688 188.894 33.0866 189.042 33.2506 189.285C34.2622 190.808 34.977 191.914 35.4071 192.794C35.8398 193.679 35.9045 194.181 35.8195 194.539C35.7345 194.896 35.4503 195.317 34.6622 195.916C33.8783 196.511 32.7343 197.182 31.1325 198.092L31.106 198.107L31.0807 198.124C30.9454 198.214 30.8056 198.299 30.6606 198.387L30.6451 198.396C30.6156 198.363 30.5816 198.32 30.5369 198.26C30.5246 198.244 30.5094 198.223 30.4923 198.199C30.444 198.133 30.3804 198.046 30.3219 197.973ZM32.7694 188.718C32.7694 188.718 32.7701 188.719 32.7716 188.719C32.7702 188.719 32.7695 188.718 32.7694 188.718Z" fill="#338080" stroke="#FFFCF5" stroke-width="1.7"/>
<path d="M68.3064 234.191L68.3065 234.191L68.3006 234.188C67.7971 233.888 67.201 233.592 66.6286 233.308L66.6035 233.296C66.0264 233.01 65.4674 232.733 64.9743 232.448C64.4659 232.154 64.0893 231.887 63.8592 231.644C63.6328 231.406 63.6526 231.307 63.6536 231.302C63.6536 231.302 63.6536 231.302 63.6536 231.302L63.6539 231.3C63.8008 230.323 64.3715 229.344 65.1853 228.267C65.5195 227.825 65.8775 227.388 66.2475 226.936C66.3234 226.843 66.3999 226.749 66.4768 226.655C66.8211 226.233 67.1712 225.798 67.4993 225.354C69.43 226.56 71.3499 227.782 73.2592 229.019C72.1271 231.117 70.8916 233.157 69.5574 235.132C69.5426 235.123 69.5267 235.113 69.5095 235.102C69.3517 234.998 69.1816 234.86 68.9715 234.687L68.957 234.676C68.772 234.524 68.5363 234.331 68.3064 234.191Z" fill="#338080" stroke="#FFFCF5" stroke-width="1.7"/>
<path d="M104.483 242.268L104.476 242.294L104.47 242.321C104.381 242.714 104.277 243.16 104.164 243.645C103.856 244.97 103.48 246.583 103.157 248.192L103.157 248.193C103.14 248.277 103.122 248.335 103.108 248.373C103.085 248.371 103.057 248.367 103.021 248.36C102.916 248.341 102.81 248.313 102.664 248.274C102.639 248.267 102.612 248.259 102.584 248.252C101.943 248.076 101.248 247.947 100.577 247.83C100.452 247.808 100.328 247.787 100.205 247.765C99.6538 247.67 99.1228 247.578 98.6157 247.467C97.9965 247.332 97.4604 247.178 97.0266 246.98C96.593 246.783 96.3121 246.565 96.1445 246.33C96.0236 246.161 95.9566 245.915 96.0026 245.504C96.0498 245.082 96.207 244.575 96.4409 243.974C96.5559 243.678 96.6836 243.373 96.818 243.055C96.83 243.027 96.842 242.998 96.8541 242.97C96.976 242.681 97.1027 242.381 97.2224 242.082C97.4833 241.429 97.7321 240.728 97.8556 240.037C97.8783 239.915 97.907 239.823 97.9362 239.756C97.9505 239.724 97.9633 239.702 97.973 239.687C97.9735 239.686 97.974 239.686 97.9744 239.685C97.9957 239.686 98.0332 239.689 98.0904 239.704L98.0904 239.704L98.0923 239.705C100.247 240.259 102.395 240.845 104.549 241.432C104.582 241.441 104.607 241.45 104.625 241.456C104.627 241.488 104.628 241.536 104.623 241.607C104.611 241.756 104.571 241.969 104.483 242.268Z" fill="#338080" stroke="#FFFCF5" stroke-width="1.7"/>
<path d="M21.1651 164.189L21.1651 164.189L21.1601 164.191C19.5229 164.816 18.28 165.212 17.3124 165.367C16.349 165.521 15.7755 165.418 15.3833 165.181C14.9865 164.941 14.6128 164.467 14.2694 163.516C13.9262 162.566 13.6535 161.255 13.3825 159.485C13.3501 159.264 13.332 159.102 13.3307 158.973C13.33 158.909 13.3339 158.867 13.3377 158.841C13.3807 158.824 13.4714 158.797 13.6378 158.781C14.0276 158.747 14.3941 158.652 14.6965 158.571C14.7291 158.562 14.7609 158.554 14.7921 158.545C15.0708 158.47 15.2947 158.41 15.5207 158.376L15.5207 158.376L15.5275 158.375C16.0639 158.289 16.6193 158.105 17.1225 157.925C17.2866 157.866 17.4439 157.808 17.5964 157.752C17.9382 157.626 18.2561 157.508 18.5727 157.41C19.0297 157.268 19.3723 157.204 19.6217 157.214C19.8335 157.222 19.9182 157.278 19.9817 157.357C20.5521 158.092 20.888 159.073 21.1364 160.154C21.2437 160.621 21.3302 161.084 21.4159 161.543C21.4289 161.612 21.4418 161.681 21.4548 161.75C21.55 162.258 21.6497 162.769 21.7773 163.22C21.8402 163.479 21.873 163.667 21.8855 163.804C21.8885 163.837 21.8902 163.865 21.8909 163.888C21.7348 163.94 21.5953 164.001 21.4851 164.05C21.4588 164.062 21.4344 164.073 21.4114 164.083C21.3121 164.128 21.2407 164.16 21.1651 164.189Z" fill="#338080" stroke="#FFFCF5" stroke-width="1.7"/>
<path d="M24.0129 91.9601L24.0127 91.9604C23.7425 92.5149 23.5746 93.1451 23.4422 93.7258C23.388 93.9634 23.3408 94.1861 23.2956 94.4001C23.2221 94.7472 23.1535 95.0711 23.0677 95.3977C22.9324 95.9123 22.788 96.2837 22.6156 96.5299C22.4655 96.7443 22.3127 96.8419 22.0975 96.8723C21.1872 96.999 20.1622 96.7631 18.9842 96.3411C18.4907 96.1643 17.9949 95.9645 17.4816 95.7576C17.3883 95.72 17.2944 95.6822 17.1999 95.6442C16.6461 95.4218 16.0733 95.1964 15.4994 95.0063C15.5074 94.9719 15.5182 94.9344 15.5317 94.8946C16.3148 92.6155 17.0943 90.3631 17.9429 88.113L17.9456 88.106L17.9481 88.0989C17.9517 88.0886 17.9552 88.0796 17.9583 88.0717C17.9645 88.0717 17.9714 88.0718 17.9788 88.0721C18.0592 88.0749 18.1939 88.0943 18.3999 88.1579C20.5379 88.9095 22.6366 89.7689 24.6878 90.7329C24.6815 90.7543 24.6725 90.7812 24.6595 90.814C24.6032 90.9571 24.5093 91.1234 24.3837 91.3275C24.3643 91.359 24.343 91.3932 24.3205 91.4294C24.2204 91.5899 24.0964 91.7888 24.0129 91.9601ZM17.9043 88.0758C17.9043 88.0758 17.9046 88.0757 17.9053 88.0755L17.9043 88.0758Z" fill="#338080" stroke="#FFFCF5" stroke-width="1.7"/>
<path d="M110.931 11.3147C111.972 11.0797 112.176 11.628 112.301 12.4035L104.562 18.9755C104.488 18.2421 104.193 17.4281 103.904 16.6303C103.373 15.1615 102.86 13.7473 103.779 12.991C104.929 12.0573 106.661 11.8696 108.419 11.6792C109.271 11.5868 110.13 11.4938 110.931 11.3147ZM104.124 14.1433C104.129 13.8736 104.201 13.7453 104.318 13.6488C104.976 13.1153 105.943 12.8551 107.194 12.6803C107.577 12.6267 107.999 12.5807 108.437 12.5329C109.321 12.4366 110.272 12.3329 111.116 12.1442L111.118 12.1439C111.237 12.1168 111.316 12.1102 111.363 12.1098C111.367 12.1198 111.371 12.1316 111.376 12.1453C111.406 12.2342 111.433 12.3582 111.462 12.5391L111.462 12.5391L111.463 12.5464C111.791 14.4681 112.105 16.3978 112.398 18.2411C112.138 18.711 111.838 18.9938 111.526 19.1808C111.153 19.4047 110.707 19.5252 110.162 19.5989C109.89 19.6356 109.607 19.6591 109.304 19.6818C109.255 19.6855 109.205 19.6891 109.154 19.6929C108.901 19.7115 108.633 19.7312 108.369 19.7587C107.736 19.8248 107.036 19.9434 106.378 20.2623C106.013 20.4378 105.869 20.364 105.832 20.3415C105.768 20.3015 105.6 20.1379 105.529 19.6393L105.529 19.6393L105.529 19.6351C105.511 19.5149 105.489 19.3924 105.47 19.2892C105.465 19.2625 105.46 19.237 105.456 19.2132C105.433 19.0872 105.417 18.9885 105.409 18.8985L105.409 18.8985L105.408 18.8896C105.345 18.2675 105.154 17.63 104.956 17.0504C104.865 16.7841 104.777 16.5426 104.693 16.3112C104.578 15.9952 104.47 15.698 104.37 15.3819C104.203 14.8557 104.117 14.4501 104.124 14.1433Z" fill="#338080" stroke="#FFFCF5" stroke-width="1.7"/>
<path d="M17.917 146.28L17.917 146.28C17.8219 147.086 17.5364 147.56 17.2009 147.86C16.8509 148.173 16.3649 148.367 15.7584 148.458C14.5441 148.64 13.1351 148.374 12.1274 148.183C12.1011 148.178 12.0751 148.174 12.0494 148.169L12.0485 148.169C11.447 148.056 11.1168 147.808 10.909 147.518C10.6832 147.204 10.5438 146.756 10.4902 146.165C10.437 145.577 10.4743 144.918 10.5433 144.23C10.5692 143.971 10.6019 143.692 10.6346 143.413C10.6826 143.003 10.7307 142.593 10.7575 142.247L10.7575 142.247L10.7576 142.245C10.8287 141.291 11.0885 141.01 11.2389 140.907C11.4381 140.772 11.7728 140.713 12.4017 140.752C12.6023 140.765 12.7969 140.784 13.0084 140.804C13.1219 140.815 13.2403 140.827 13.3671 140.838C13.7094 140.868 14.0865 140.894 14.4641 140.878C15.06 140.854 15.7153 140.725 16.2916 140.314C16.8866 140.586 17.284 140.913 17.5553 141.254C17.8919 141.677 18.0768 142.173 18.1605 142.729C18.297 143.636 18.1614 144.561 18.0292 145.463C17.9889 145.738 17.9489 146.011 17.917 146.28Z" fill="#338080" stroke="#FFFCF5" stroke-width="1.7"/>
<path d="M245.022 168.734L245.022 168.734L245.018 168.744C244.452 170.52 244.026 171.791 243.604 172.677C243.176 173.575 242.835 173.892 242.546 174.008C242.252 174.125 241.775 174.131 240.825 173.783C239.889 173.44 238.679 172.827 237.012 171.955C236.929 171.911 236.845 171.87 236.774 171.836L236.767 171.832C236.695 171.797 236.636 171.768 236.58 171.739C236.516 171.706 236.471 171.679 236.44 171.659C236.441 171.654 236.443 171.648 236.445 171.642C237.174 169.484 237.926 167.328 238.707 165.188C239.518 165.444 240.334 165.697 241.151 165.95C242.603 166.401 244.059 166.852 245.501 167.326C245.491 167.368 245.477 167.416 245.459 167.469C245.388 167.686 245.317 167.889 245.243 168.096C245.237 168.113 245.231 168.13 245.225 168.147C245.158 168.336 245.089 168.531 245.022 168.734Z" fill="#338080" stroke="#FFFCF5" stroke-width="1.7"/>
<mask id="path-23-inside-1_581_23748" fill="white">
<path d="M174.815 243.362C174.844 243.452 174.853 243.546 174.844 243.639C174.834 243.733 174.805 243.823 174.758 243.905C174.712 243.986 174.649 244.058 174.574 244.114C174.499 244.17 174.413 244.21 174.322 244.232C173.813 244.396 173.319 244.616 172.818 244.804C165.768 247.467 165.565 247.341 164.147 239.978C163.983 239.109 163.873 238.412 165.071 238.224C165.768 238.114 166.419 237.722 167.108 237.566C168.721 237.198 170.852 235.333 171.729 236.399C173.296 238.31 173.86 241.044 174.815 243.362Z"/>
</mask>
<path d="M174.815 243.362C174.844 243.452 174.853 243.546 174.844 243.639C174.834 243.733 174.805 243.823 174.758 243.905C174.712 243.986 174.649 244.058 174.574 244.114C174.499 244.17 174.413 244.21 174.322 244.232C173.813 244.396 173.319 244.616 172.818 244.804C165.768 247.467 165.565 247.341 164.147 239.978C163.983 239.109 163.873 238.412 165.071 238.224C165.768 238.114 166.419 237.722 167.108 237.566C168.721 237.198 170.852 235.333 171.729 236.399C173.296 238.31 173.86 241.044 174.815 243.362Z" fill="#338080"/>
<path d="M174.815 243.362L176.436 242.848L176.414 242.78L176.387 242.714L174.815 243.362ZM174.322 244.232L173.933 242.577L173.865 242.593L173.799 242.614L174.322 244.232ZM172.818 244.804L172.221 243.212L172.217 243.213L172.818 244.804ZM164.147 239.978L162.477 240.294L162.478 240.3L164.147 239.978ZM165.071 238.224L165.335 239.903L165.335 239.903L165.071 238.224ZM167.108 237.566L167.485 239.223L167.486 239.223L167.108 237.566ZM171.729 236.399L173.044 235.321L173.042 235.318L171.729 236.399ZM173.195 243.876C173.153 243.743 173.138 243.602 173.153 243.462L176.534 243.817C176.569 243.49 176.535 243.161 176.436 242.848L173.195 243.876ZM173.153 243.462C173.167 243.322 173.211 243.187 173.28 243.066L176.237 244.744C176.399 244.459 176.5 244.143 176.534 243.817L173.153 243.462ZM173.28 243.066C173.349 242.944 173.443 242.837 173.555 242.753L175.593 245.474C175.856 245.278 176.075 245.029 176.237 244.744L173.28 243.066ZM173.555 242.753C173.667 242.669 173.796 242.609 173.933 242.577L174.711 245.887C175.031 245.811 175.331 245.671 175.593 245.474L173.555 242.753ZM173.799 242.614C173.256 242.79 172.58 243.077 172.221 243.212L173.415 246.395C174.059 246.154 174.37 246.003 174.845 245.849L173.799 242.614ZM172.217 243.213C170.424 243.891 169.199 244.338 168.292 244.555C167.35 244.781 167.167 244.648 167.199 244.666C167.232 244.685 167.024 244.601 166.725 243.685C166.436 242.803 166.177 241.531 165.816 239.657L162.478 240.3C162.826 242.107 163.124 243.612 163.493 244.741C163.851 245.837 164.4 246.998 165.542 247.635C166.684 248.272 167.961 248.131 169.085 247.862C170.244 247.584 171.687 247.048 173.419 246.394L172.217 243.213ZM165.817 239.662C165.774 239.433 165.755 239.316 165.748 239.233C165.742 239.151 165.761 239.231 165.711 239.381C165.684 239.465 165.637 239.561 165.567 239.655C165.496 239.749 165.418 239.817 165.351 239.863C165.229 239.945 165.181 239.927 165.335 239.903L164.808 236.544C164.362 236.614 163.879 236.754 163.445 237.047C162.974 237.366 162.652 237.807 162.485 238.309C162.333 238.766 162.336 239.196 162.359 239.494C162.382 239.793 162.438 240.089 162.477 240.294L165.817 239.662ZM165.335 239.903C165.888 239.816 166.382 239.624 166.711 239.496C167.096 239.346 167.293 239.267 167.485 239.223L166.731 235.908C166.234 236.021 165.761 236.217 165.474 236.329C165.131 236.463 164.952 236.522 164.807 236.544L165.335 239.903ZM167.486 239.223C168.083 239.087 168.661 238.831 169.119 238.613C169.664 238.353 169.972 238.184 170.391 237.995C170.571 237.915 170.715 237.857 170.832 237.819C170.889 237.801 170.933 237.789 170.965 237.782C170.981 237.778 170.993 237.776 171.002 237.775C171.01 237.774 171.014 237.773 171.013 237.773C170.977 237.776 170.652 237.765 170.417 237.479L173.042 235.318C172.368 234.5 171.448 234.322 170.715 234.386C170.066 234.444 169.448 234.692 168.998 234.894C168.573 235.085 167.991 235.384 167.656 235.544C167.233 235.745 166.939 235.861 166.73 235.908L167.486 239.223ZM170.414 237.476C171.019 238.214 171.474 239.167 171.91 240.327C172.128 240.905 172.326 241.492 172.544 242.12C172.756 242.735 172.984 243.381 173.244 244.01L176.387 242.714C176.168 242.184 175.968 241.619 175.757 241.009C175.551 240.413 175.331 239.763 175.092 239.129C174.616 237.864 174.006 236.494 173.044 235.321L170.414 237.476Z" fill="#FFFCF5" mask="url(#path-23-inside-1_581_23748)"/>
<path d="M248.61 120.943L248.608 120.943C246.998 121.004 245.834 121.046 244.963 120.978C244.084 120.91 243.693 120.739 243.484 120.539C243.281 120.345 243.092 119.974 243.014 119.092C242.938 118.216 242.983 117.007 243.089 115.305L243.089 115.304C243.132 114.619 243.361 114.254 243.627 114.03C243.92 113.782 244.364 113.619 244.967 113.546C245.565 113.473 246.24 113.498 246.923 113.558C247.246 113.586 247.56 113.621 247.866 113.655L247.912 113.66C248.225 113.695 248.536 113.729 248.814 113.749L248.814 113.749L248.82 113.75C249.645 113.803 249.899 114.041 249.994 114.18C250.12 114.365 250.184 114.682 250.14 115.23C250.119 115.49 250.077 115.765 250.028 116.061C250.02 116.11 250.012 116.16 250.003 116.21C249.963 116.454 249.919 116.714 249.889 116.959C249.854 117.254 249.83 117.582 249.865 117.899C249.894 118.166 249.971 118.474 250.158 118.754C250.406 119.5 250.477 119.988 250.463 120.296C250.45 120.588 250.368 120.662 250.336 120.69C250.266 120.748 250.113 120.823 249.781 120.871C249.495 120.913 249.175 120.924 248.791 120.937C248.732 120.939 248.672 120.941 248.61 120.943Z" fill="#338080" stroke="#FFFCF5" stroke-width="1.7"/>
<path d="M119.462 251.104L119.445 251.099L119.427 251.095C117.975 250.77 116.495 250.582 115.007 250.534L114.969 250.533L114.931 250.535C113.731 250.604 113.592 250.301 113.572 250.257C113.572 250.256 113.572 250.256 113.571 250.255C113.533 250.172 113.497 250.006 113.524 249.7C113.55 249.399 113.629 249.036 113.748 248.601C113.895 248.061 113.95 247.484 113.98 246.949C113.995 246.693 114.003 246.464 114.012 246.244C114.023 245.959 114.033 245.689 114.055 245.392C114.13 244.363 114.318 243.784 114.714 243.481C115.092 243.191 115.626 243.179 116.587 243.403C116.792 243.45 117 243.504 117.221 243.561C117.245 243.567 117.269 243.573 117.294 243.579C117.537 243.642 117.796 243.708 118.057 243.766C118.574 243.879 119.148 243.971 119.73 243.937C120.895 243.869 121.246 244.098 121.349 244.228C121.463 244.374 121.588 244.783 121.315 245.865L121.313 245.872L121.312 245.879C121.024 247.105 120.933 248.37 121.041 249.624C121.109 250.62 120.94 250.997 120.818 251.117C120.746 251.188 120.46 251.372 119.462 251.104Z" fill="#338080" stroke="#FFFCF5" stroke-width="1.7"/>
<path d="M79.8774 28.3548C80.0282 28.6572 80.1795 28.9605 80.3315 29.2649C79.0878 29.9517 77.8461 30.614 76.5935 31.282C75.8442 31.6816 75.0911 32.0832 74.3314 32.4934C73.1342 30.4673 71.9543 28.4448 70.8161 26.396C70.8457 26.3665 70.8671 26.3482 70.8787 26.3388C72.9355 25.1979 75.0281 24.0847 77.1565 22.9995C77.1593 22.999 77.1625 22.9985 77.1662 22.998C78.0875 24.7663 78.9744 26.5444 79.8774 28.3548Z" fill="#338080" stroke="#FFFCF5" stroke-width="1.7"/>
<path d="M205.015 225.712C204.978 225.661 204.941 225.611 204.906 225.562C204.645 225.206 204.412 224.887 204.149 224.56C203.792 224.129 203.46 223.648 203.15 223.186C203.085 223.089 203.021 222.994 202.958 222.899C202.711 222.53 202.476 222.178 202.233 221.846C201.596 220.98 201.073 220.504 200.565 220.385C200.397 220.346 200.194 220.366 199.902 220.513C199.597 220.665 199.259 220.924 198.863 221.275C198.669 221.447 198.472 221.631 198.263 221.826L198.249 221.84C198.048 222.028 197.836 222.225 197.621 222.417C197.186 222.805 196.698 223.203 196.166 223.496C195.466 223.889 195.348 224.133 195.326 224.237C195.3 224.36 195.323 224.675 195.826 225.404L205.015 225.712ZM205.015 225.712C204.976 225.746 204.938 225.781 204.9 225.815C204.565 226.116 204.272 226.379 203.946 226.636C202.558 227.726 201.578 228.495 200.8 228.976C200.012 229.465 199.608 229.543 199.343 229.501C199.077 229.459 198.716 229.259 198.112 228.556C197.537 227.886 196.863 226.908 195.921 225.541C195.889 225.496 195.858 225.45 195.826 225.404L205.015 225.712Z" fill="#338080" stroke="#FFFCF5" stroke-width="1.7"/>
<path d="M90.9097 25.7431C90.9518 25.7282 90.9937 25.7134 91.0353 25.6986C97.1997 23.5187 97.2092 23.5154 95.1629 17.252C95.1159 17.111 95.0672 16.9699 95.0184 16.8289C94.921 16.547 94.8235 16.265 94.7399 15.983L90.9097 25.7431ZM90.9097 25.7431C89.5233 26.2366 88.9045 26.0721 88.3092 24.6699L90.9097 25.7431ZM94.2237 17.1318C94.2703 17.2668 94.3153 17.397 94.3557 17.5184C94.8767 19.1131 95.2423 20.2384 95.4194 21.0977C95.5974 21.961 95.5434 22.3787 95.4091 22.6441C95.2728 22.9134 94.9608 23.2113 94.1514 23.5974C93.361 23.9745 92.2568 24.365 90.7059 24.9136L90.6263 24.9417L90.6246 24.9423C89.9427 25.185 89.7072 25.1583 89.6178 25.124C89.5561 25.1003 89.371 24.9955 89.092 24.3388C89.0919 24.3385 89.0917 24.3381 89.0916 24.3377L89.0656 24.2762C88.3679 22.6204 87.8711 21.4412 87.6021 20.537C87.3255 19.6071 87.359 19.177 87.4791 18.9205C87.6006 18.661 87.9166 18.352 88.8217 17.9529C89.7114 17.5606 90.9753 17.1602 92.7558 16.5977L92.7558 16.5977L92.7633 16.5953L93.9228 16.2172L93.925 16.2245C94.0138 16.5242 94.1227 16.8395 94.2237 17.1318Z" fill="#338080" stroke="#FFFCF5" stroke-width="1.7"/>
<path d="M185.085 238.517C184.653 238.729 184.188 238.958 183.643 239.229C183.546 239.07 183.457 238.902 183.355 238.71C183.336 238.674 183.317 238.637 183.296 238.599L183.296 238.599L183.292 238.592C182.388 236.935 181.746 235.755 181.372 234.838C180.994 233.911 180.969 233.433 181.071 233.115C181.174 232.795 181.474 232.42 182.321 231.881C183.159 231.348 184.363 230.755 186.055 229.923L186.055 229.923L186.057 229.922C186.295 229.804 186.457 229.746 186.567 229.722C186.622 229.71 186.653 229.709 186.668 229.709C186.696 229.731 186.793 229.825 186.943 230.149C187.144 230.593 187.413 231.04 187.648 231.432C187.74 231.585 187.826 231.729 187.902 231.862L187.902 231.862L187.906 231.868C188.616 233.087 189.11 233.938 189.4 234.598C189.694 235.268 189.692 235.558 189.643 235.716C189.594 235.879 189.426 236.131 188.798 236.544C188.181 236.949 187.287 237.407 186.01 238.06C185.708 238.209 185.406 238.358 185.085 238.517ZM186.679 229.71C186.679 229.71 186.678 229.71 186.677 229.709L186.679 229.71ZM186.662 229.704C186.661 229.704 186.66 229.703 186.66 229.703L186.662 229.704Z" fill="#338080" stroke="#FFFCF5" stroke-width="1.7"/>
<path d="M129.377 15.7826L129.381 15.8229L129.388 15.8626C129.594 16.9273 129.401 17.3278 129.259 17.4674C129.107 17.617 128.687 17.7979 127.642 17.6212C127.023 17.5123 126.408 17.5751 125.865 17.6693C125.591 17.7169 125.319 17.7757 125.067 17.8312C125.046 17.8357 125.025 17.8402 125.005 17.8447C124.77 17.8962 124.553 17.9439 124.341 17.9834C123.382 18.1617 122.914 18.0915 122.566 17.6727L122.566 17.6727L122.564 17.6707C122.224 17.2635 122.122 16.6365 122.138 15.6532C122.142 15.4521 122.151 15.2319 122.161 14.9995C122.193 14.2294 122.23 13.3245 122.082 12.531C121.878 11.4167 122.068 11.0109 122.21 10.8667C122.365 10.7098 122.779 10.5313 123.825 10.6551L123.861 10.6593L123.897 10.6605C124.464 10.6795 125.031 10.6664 125.597 10.6212C126.763 10.5996 127.568 10.5863 128.157 10.6412C128.758 10.6971 128.945 10.8115 129.021 10.8861C129.098 10.9616 129.217 11.1487 129.288 11.7525C129.357 12.3415 129.365 13.1467 129.373 14.3098C129.328 14.7998 129.33 15.2928 129.377 15.7826Z" fill="#338080" stroke="#FFFCF5" stroke-width="1.7"/>
<path d="M14.2841 123.307L14.3098 123.309H14.3356C14.5286 123.309 14.7275 123.335 14.998 123.372C15.0092 123.373 15.0205 123.375 15.0319 123.376C15.2961 123.412 15.6347 123.457 15.9866 123.441L15.9491 122.592L15.9846 123.441C16.9407 123.401 17.2463 123.62 17.3373 123.74C17.4352 123.868 17.5584 124.235 17.2947 125.143L17.2857 125.175L17.279 125.206C17.1947 125.61 17.1544 126.021 17.1588 126.432C17.0862 127.57 17.0342 128.359 16.9349 128.94C16.8344 129.528 16.7077 129.746 16.6013 129.853C16.4991 129.956 16.2953 130.077 15.7325 130.165C15.1663 130.254 14.3964 130.288 13.2733 130.336C12.2297 130.38 11.5215 130.408 11.0072 130.371C10.4843 130.333 10.364 130.237 10.3344 130.207C10.3 130.173 10.1985 130.041 10.1435 129.498C10.0898 128.967 10.094 128.235 10.102 127.166C10.1139 125.894 10.1235 125.013 10.2016 124.373C10.281 123.722 10.4125 123.522 10.4997 123.441C10.5886 123.359 10.8031 123.242 11.4653 123.209C12.116 123.177 13.0041 123.229 14.2841 123.307Z" fill="#338080" stroke="#FFFCF5" stroke-width="1.7"/>
<path d="M259.149 44.5793L259.149 44.5835C259.115 52.8804 256.622 60.981 251.986 67.862C247.351 74.7431 240.78 80.0959 233.103 83.2443C225.427 86.3927 216.99 87.1955 208.858 85.5513C200.726 83.9072 193.263 79.8897 187.413 74.0065C181.563 68.1232 177.587 60.6381 175.989 52.4966C174.39 44.355 175.24 35.9224 178.431 28.2637C181.623 20.605 187.012 14.0639 193.919 9.46663C200.825 4.86935 208.94 2.42211 217.236 2.43405L217.24 2.43404C222.766 2.42488 228.239 3.51046 233.343 5.62813C238.448 7.74579 243.082 10.8536 246.978 14.772C250.875 18.6905 253.956 23.3421 256.045 28.4581C258.134 33.5741 259.189 39.0533 259.149 44.5793ZM217.019 80.4047L217.025 80.4047C236.664 80.5432 253.024 64.2374 253.17 44.6148C253.317 24.9809 237.08 8.56032 217.461 8.3975C197.839 8.23466 181.376 24.3895 181.181 44.043H181.181L181.181 44.0533C181.159 53.6125 184.911 62.794 191.622 69.6012C198.333 76.4085 207.46 80.291 217.019 80.4047Z" fill="#338080" stroke="#FFFCF5" stroke-width="2.7"/>
<path d="M229.708 178.234L229.724 178.273L229.743 178.311C230.025 178.883 230.256 179.478 230.434 180.09C231.497 184.214 233.353 187.603 236.022 190.243C238.693 192.884 242.115 194.712 246.214 195.811C247.991 196.289 249.015 196.925 249.601 197.617C250.167 198.285 250.457 199.159 250.447 200.411L250.447 200.434L250.447 200.457C250.467 201.196 250.276 201.926 249.897 202.56C249.518 203.195 248.966 203.708 248.306 204.041L248.26 204.065L248.216 204.091C247.711 204.396 247.169 204.632 246.602 204.793C242.218 205.832 238.667 207.762 235.917 210.558C233.167 213.355 231.283 216.953 230.128 221.226L230.128 221.227C229.703 222.801 229.113 223.698 228.465 224.217C227.827 224.726 226.971 224.999 225.745 224.999H225.722L225.7 225C224.962 225.024 224.232 224.836 223.597 224.457C222.962 224.079 222.45 223.526 222.12 222.864L222.099 222.823L222.076 222.782C221.776 222.273 221.545 221.726 221.389 221.155C220.327 216.793 218.398 213.225 215.602 210.463C212.805 207.7 209.207 205.808 204.91 204.699L204.908 204.699C203.734 204.398 202.855 203.935 202.253 203.324C201.672 202.734 201.266 201.921 201.171 200.737L201.169 200.707L201.165 200.677C201.055 199.797 201.24 198.906 201.691 198.143L200.528 197.457L201.691 198.143C202.141 197.38 202.832 196.787 203.655 196.458L203.696 196.442L203.735 196.423C204.303 196.153 204.896 195.939 205.506 195.785L205.506 195.785L205.516 195.783C209.637 194.709 213.048 192.849 215.702 190.176C218.354 187.503 220.187 184.079 221.248 179.97L221.248 179.969C221.551 178.794 221.97 177.831 222.558 177.123C223.121 176.445 223.882 175.946 225.011 175.744L225.023 175.742L225.034 175.74C225.981 175.553 226.964 175.7 227.815 176.154C228.667 176.609 229.336 177.343 229.708 178.234ZM224.63 212.671L225.847 215.196L227.063 212.671C229.41 207.796 233.356 203.873 238.245 201.555L240.834 200.327L238.239 199.113C233.03 196.674 229.648 193.025 227.01 188.005L225.75 185.606L224.594 188.057C222.157 193.227 218.507 196.573 213.588 199.191L211.256 200.431L213.628 201.594C218.433 203.95 222.307 207.851 224.63 212.671Z" fill="#338080" stroke="#FFFCF5" stroke-width="2.7"/>
<path d="M256.407 237.934L256.407 237.934L256.418 237.937C257.463 238.22 258.08 238.686 258.47 239.305C258.88 239.957 259.139 240.934 259.141 242.412C259.08 243.065 258.814 243.682 258.382 244.177L259.399 245.065L258.382 244.177C257.94 244.684 257.346 245.034 256.688 245.177L256.656 245.184L256.624 245.192C253.531 246.024 250.937 247.394 248.904 249.4C246.87 251.407 245.466 253.985 244.655 257.123C244.422 258.011 243.993 258.617 243.449 259.014C242.896 259.419 242.13 259.676 241.124 259.692C240.058 259.708 239.26 259.454 238.685 259.04C238.117 258.631 237.66 257.99 237.404 257.035C236.587 253.986 235.231 251.433 233.249 249.436C231.266 247.437 228.721 246.062 225.635 245.267L225.613 245.261L225.591 245.257C224.788 245.078 224.076 244.616 223.584 243.956C223.093 243.296 222.856 242.481 222.916 241.66L222.922 241.577L222.918 241.493C222.876 240.669 223.129 239.857 223.63 239.201C224.132 238.546 224.849 238.09 225.656 237.914L225.682 237.908L225.709 237.902C228.727 237.116 231.241 235.772 233.207 233.814C235.174 231.856 236.528 229.349 237.326 226.335L237.326 226.335C237.545 225.509 238.031 224.779 238.709 224.26C239.387 223.74 240.218 223.46 241.072 223.463C241.926 223.467 242.754 223.753 243.428 224.278C244.102 224.803 244.582 225.536 244.795 226.364L244.795 226.366C245.584 229.422 246.964 231.91 248.948 233.848C250.927 235.782 253.442 237.104 256.407 237.934ZM243.662 246.097C244.175 245.571 244.71 244.968 245.11 244.243C245.152 244.22 245.212 244.189 245.298 244.148C245.337 244.129 245.391 244.105 245.454 244.077C245.718 243.959 246.15 243.764 246.466 243.551C246.894 243.263 247.653 242.576 247.438 241.449C247.352 240.994 247.12 240.613 246.872 240.307C246.625 240.004 246.307 239.708 245.933 239.411C244.915 238.514 243.955 237.553 243.059 236.534L243.023 236.493L242.984 236.456C242.928 236.401 242.877 236.34 242.833 236.275C242.507 235.763 241.8 234.943 240.684 235.19C240.235 235.289 239.912 235.54 239.714 235.727C239.508 235.921 239.339 236.142 239.208 236.33L239.2 236.341L239.192 236.353C238.832 236.89 238.274 237.345 237.546 237.938C237.449 238.017 237.349 238.098 237.247 238.182C236.848 238.51 236.403 238.888 236.025 239.312C235.645 239.738 235.274 240.276 235.094 240.943L235.093 240.947C234.856 241.836 235.089 242.613 235.51 243.216C235.885 243.752 236.416 244.165 236.834 244.469C237.018 244.603 237.182 244.718 237.335 244.825C237.591 245.004 237.816 245.161 238.054 245.352C238.408 245.635 238.608 245.86 238.712 246.05L238.739 246.101L238.771 246.149C239.147 246.722 239.572 247.262 240.04 247.763L241.036 248.828L242.021 247.753C242.357 247.387 242.662 247.088 242.982 246.774C243.197 246.564 243.419 246.346 243.662 246.097ZM245.036 244.29C245.036 244.29 245.038 244.288 245.043 244.284C245.039 244.288 245.036 244.29 245.036 244.29Z" fill="#338080" stroke="#FFFCF5" stroke-width="2.7"/>
<path d="M241.465 38.4462L241.47 38.4649L241.476 38.4834C242.056 40.5093 242.07 42.6554 241.518 44.689C240.965 46.7226 239.867 48.5661 238.341 50.0197L238.331 50.0295L238.32 50.0395C232.671 55.6534 226.844 61.0983 221.003 66.5572C220.456 67.0679 219.91 67.5787 219.363 68.0898L219.358 68.0951L219.352 68.1004C218.553 68.8646 217.805 69.1406 217.159 69.1389C216.509 69.1371 215.753 68.8538 214.944 68.0928L214.942 68.0907C214.508 67.6842 214.074 67.2779 213.64 66.8717C207.759 61.3637 201.894 55.8717 196.167 50.2383L196.16 50.232L196.154 50.2259C194.323 48.4723 193.088 46.1892 192.621 43.6973C192.155 41.2054 192.48 38.63 193.553 36.3329L193.554 36.3315C196.028 31.0146 200.343 28.6215 204.664 28.409C209.448 28.3828 212.309 29.3382 214.636 31.3918C215.366 32.038 216.209 32.5804 217.247 32.5401C218.218 32.5024 219.023 31.9528 219.676 31.4495L219.679 31.4474C227.738 25.2 239.034 28.9391 241.465 38.4462ZM232.888 46.9842L232.888 46.984C234.457 45.4871 235.535 43.8699 235.807 42.1152C236.087 40.2998 235.467 38.6002 234.18 37.0703C231.468 33.8466 226.752 33.5192 223.328 36.2954C222.532 36.9393 221.74 37.71 221.007 38.4231C220.618 38.8015 220.245 39.1637 219.898 39.4821L219.898 39.4821L219.89 39.4891C218.694 40.6025 217.859 40.9302 217.199 40.9241C216.531 40.9179 215.675 40.5682 214.444 39.4478C213.143 38.1374 211.755 36.9149 210.291 35.7885L210.275 35.7762L210.259 35.7644C209.083 34.9141 207.678 34.4381 206.227 34.3985C204.792 34.3594 203.378 34.7493 202.166 35.5177C201.124 36.0989 200.245 36.9325 199.609 37.9422C198.965 38.9652 198.592 40.1352 198.525 41.3423L198.519 41.4477L198.53 41.5528C198.72 43.4427 199.59 45.1993 200.976 46.4971C202.337 47.7847 203.7 49.0663 205.062 50.3467C208.359 53.4475 211.649 56.541 214.884 59.6937C215.504 60.3 216.311 60.909 217.346 60.8476C218.32 60.79 219.058 60.1496 219.58 59.6425L219.583 59.6402C222.336 56.9562 225.128 54.3221 227.931 51.6784C229.582 50.1211 231.236 48.5604 232.888 46.9842Z" fill="#338080" stroke="#FFFCF5" stroke-width="2.7"/>
<path d="M147.228 134.843C147.228 131.968 147.173 129.273 147.228 126.579C147.283 124.55 147.909 123.767 149.124 123.821C150.338 123.876 150.894 124.832 150.729 126.869C150.192 131.908 150.601 137.003 151.936 141.892C152.377 143.49 153.181 144.964 154.285 146.201C155.186 147.18 155.202 148.276 154.364 148.942C153.385 149.726 152.515 149.381 151.748 148.558C149.773 146.315 148.489 143.548 148.05 140.592C147.973 140.074 147.762 139.584 147.438 139.172C147.114 138.76 146.688 138.439 146.202 138.242C136.802 133.636 127.16 133.37 117.259 136.08C115.093 136.711 112.966 137.472 110.891 138.36C110.108 138.681 110.108 138.924 110.695 139.48C113.279 141.916 115.555 144.66 117.471 147.65C118.372 149.044 118.34 149.961 117.377 150.619C116.413 151.276 115.466 150.916 114.596 149.592C108.04 139.535 98.531 133.613 87.33 130.049C84.5473 129.158 81.701 128.48 78.8157 128.02C78.988 129.955 78.2204 130.903 76.8027 130.652C75.847 130.472 75.5964 129.72 75.3223 128.944C73.4242 123.444 69.6278 118.801 64.6147 115.847C64.1963 115.495 63.6848 115.272 63.1421 115.205V116.615C63.1421 140.6 63.1421 164.585 63.1421 188.57C63.1421 189.761 63.4946 190.191 64.6069 190.426C72.0794 191.993 79.411 191.922 86.5389 188.813C86.7416 188.713 86.9378 188.6 87.1264 188.476C85.2151 187.27 83.3666 186.126 81.5494 184.943C79.9677 183.906 78.4744 182.74 77.0847 181.457C76.2387 180.674 75.894 179.797 76.7243 178.865C77.5546 177.933 78.4789 178.081 79.3562 178.865C87.8705 186.189 97.9436 190.223 108.784 192.471C119.868 194.774 131.014 194.664 142.184 192.941C153.504 191.141 164.555 187.936 175.082 183.4C178.042 182.139 180.909 182.687 183.839 183.024C185.484 183.214 187.149 183.11 188.758 182.719C192.22 181.867 194.084 179.674 194.35 176.139C194.484 175.009 194.484 173.868 194.35 172.739C193.716 169.089 194.515 165.729 196.027 162.439C197.335 159.824 198.233 157.023 198.69 154.136C199.34 149.052 198.353 144.164 197.123 139.3C195.894 134.901 194.167 130.657 191.977 126.649C186.784 116.513 181.379 106.479 177.525 95.7084C174.063 86.0424 171.134 76.2197 168.604 66.2795C167.821 63.1854 165.667 61.4386 162.549 61.6814C155.037 62.2846 147.808 60.7963 140.617 58.932C138.024 58.2584 137.296 58.5169 135.792 60.8041C133.975 63.5692 132.181 66.3421 130.309 69.0837C129.857 69.6643 129.605 70.3756 129.591 71.1112C129.577 71.8468 129.801 72.5672 130.231 73.1648C131.617 75.3502 132.956 77.5748 134.343 79.8307C136.33 78.5459 138.449 77.4772 140.664 76.6427C141.094 76.4543 141.506 76.2261 141.894 75.9612C144.455 74.3241 145.027 72.2561 143.727 69.5302C143.03 68.0811 143.21 67.1803 144.283 66.6555C145.356 66.1306 146.139 66.6555 146.836 68.0028C147.847 69.7681 148.138 71.8557 147.648 73.8302C147.158 75.8047 145.924 77.5137 144.204 78.6009C142.89 79.4291 141.497 80.1244 140.045 80.6767C137.958 81.4452 136.08 82.6927 134.562 84.3191C133.113 86.0424 133.278 87.0999 135.111 88.3845C135.834 88.9214 136.682 89.2663 137.575 89.3868C138.468 89.5073 139.377 89.3997 140.218 89.0738C141.206 88.7473 142.129 88.2488 142.943 87.6012C145.865 85.1808 149.319 84.2486 152.985 83.8335C156.518 83.434 157.238 82.7133 157.795 79.1336C157.967 78.0213 158.507 77.2145 159.729 77.3398C160.951 77.4651 161.374 78.2955 161.241 79.4626C160.951 82.0318 160.246 84.3818 157.951 85.9092C157.768 86.0076 157.625 86.168 157.549 86.3617C157.473 86.5554 157.469 86.7698 157.536 86.9667C158.711 93.711 157.693 100.205 155.249 106.549C154.312 108.862 153.527 111.232 152.899 113.646C152.562 115.041 151.661 115.699 150.596 115.315C149.366 114.876 149.272 113.928 149.539 112.777C150.385 109.134 151.998 105.766 153.087 102.21C154.366 97.8492 154.792 93.2825 154.34 88.7605C154.254 87.7422 154.105 87.1939 152.664 87.4132C149.856 87.7776 147.183 88.8356 144.886 90.4916C142.27 92.4185 139.34 93.5308 135.988 92.6457C134.001 92.1348 132.251 90.9567 131.03 89.3088C129.549 87.3035 129.933 85.1729 131.147 83.2068C131.378 82.9265 131.503 82.5749 131.503 82.212C131.503 81.8491 131.378 81.4975 131.147 81.2172C129.823 79.1571 128.578 77.0422 127.285 74.9507C126.497 73.8184 126.086 72.4665 126.11 71.0871C126.134 69.7076 126.592 68.3708 127.419 67.2664C129.299 64.4387 131.155 61.5953 133.027 58.7597C135.212 55.4541 137.586 54.5533 141.385 55.5795C148.434 57.4751 155.539 58.7675 162.902 58.2505C164.832 58.1787 166.733 58.7387 168.317 59.8456C169.9 60.9526 171.079 62.546 171.674 64.3839C172.027 65.4022 172.254 66.4675 172.52 67.5171C176.374 82.494 180.995 97.2046 187.888 111.108C191.108 117.602 194.687 123.931 197.672 130.542C200.375 136.527 201.955 142.958 202.332 149.514C202.631 154.111 201.71 158.705 199.661 162.83C197.967 165.966 197.322 169.562 197.82 173.092C198.055 174.655 198.002 176.248 197.664 177.792C196.544 183.196 192.698 186.33 186.901 186.627C184.823 186.736 182.74 186.589 180.698 186.189C179.395 185.93 178.045 186.066 176.821 186.58C167.5 190.537 157.807 193.549 147.886 195.573C138.524 197.485 128.948 198.133 119.413 197.5C109.99 196.876 100.745 194.631 92.0846 190.865C91.7945 190.726 91.4737 190.664 91.1528 190.685C90.8319 190.705 90.5217 190.808 90.2517 190.982C80.9697 195.886 71.3353 196.184 61.4424 193.207C60.9595 193.108 60.5309 192.833 60.241 192.434C59.9511 192.035 59.8209 191.543 59.8758 191.053C59.8758 164.943 59.8915 138.832 59.9228 112.722C59.9228 111.014 61.0038 110.372 62.727 111.085C67.9736 113.108 72.4362 116.756 75.4632 121.495C75.9958 122.445 76.7465 123.255 77.6535 123.859C78.5604 124.462 79.5977 124.841 80.6799 124.965C90.062 126.506 98.9402 130.266 106.575 135.931C106.772 136.121 107.027 136.238 107.299 136.263C107.571 136.289 107.843 136.222 108.071 136.072C115.524 132.316 123.832 130.579 132.165 131.036C136.881 131.301 141.513 132.404 145.842 134.294L147.228 134.843Z" fill="#338080"/>
<path d="M130.536 183.478C123.295 183.621 116.132 181.968 109.685 178.668C109.27 178.449 108.847 178.23 108.447 177.979C107.312 177.266 106.944 176.272 107.555 175.386C108.166 174.501 109.176 174.407 110.171 174.963C116.487 178.524 123.657 180.288 130.904 180.063C137.717 179.843 144.362 177.9 150.22 174.415C150.667 174.157 151.105 173.875 151.567 173.632C151.763 173.496 151.986 173.404 152.221 173.362C152.456 173.321 152.697 173.33 152.927 173.391C153.158 173.451 153.373 173.56 153.557 173.711C153.742 173.863 153.891 174.052 153.996 174.266C154.125 174.455 154.211 174.669 154.249 174.895C154.286 175.12 154.274 175.351 154.213 175.571C154.151 175.791 154.043 175.996 153.894 176.169C153.746 176.343 153.561 176.482 153.353 176.577C151.33 177.87 149.2 178.987 146.985 179.914C141.377 182.264 135.612 183.572 130.536 183.478Z" fill="#338080"/>
<path d="M72.2205 132.712C79.3719 133.111 86.0768 134.85 91.8966 139.245C94.4698 141.186 96.6251 143.626 98.2334 146.42C98.9071 147.587 98.7504 148.597 97.7791 149.114C96.6825 149.702 95.8679 149.24 95.2883 148.268C91.3248 141.54 85.0272 138.406 77.7035 136.871C75.8562 136.48 73.9754 136.267 72.0873 136.237C70.1291 136.237 69.3066 135.594 69.4006 134.325C69.4946 133.056 70.3954 132.61 72.2205 132.712Z" fill="#338080"/>
<path d="M158.539 125.905C158.593 123.935 158.787 121.972 159.118 120.03C159.314 118.926 159.902 118.197 161.116 118.299C162.33 118.401 162.721 119.247 162.526 120.61C162.024 124.174 161.742 127.73 162.753 131.263C162.998 132.064 163.294 132.849 163.638 133.613C163.757 133.815 163.831 134.04 163.855 134.274C163.88 134.507 163.854 134.743 163.78 134.966C163.706 135.188 163.585 135.392 163.425 135.564C163.266 135.736 163.071 135.872 162.855 135.963C161.821 136.48 161.037 136.025 160.505 135.062C159.173 132.195 158.502 129.066 158.539 125.905Z" fill="#338080"/>
<path d="M193.724 150.618C193.728 152.952 193.286 155.265 192.424 157.433C192.016 158.553 191.241 159.086 190.129 158.686C189.016 158.287 188.734 157.433 189.157 156.29C190.465 152.772 190.912 149.24 189.118 145.746C188.648 144.814 189.157 144.093 189.995 143.647C190.191 143.53 190.411 143.458 190.638 143.434C190.864 143.411 191.094 143.438 191.309 143.512C191.525 143.587 191.722 143.708 191.886 143.866C192.05 144.025 192.177 144.217 192.259 144.43C193.31 146.318 193.817 148.46 193.724 150.618Z" fill="#338080"/>
</svg>
