<svg width="19" height="18" viewBox="0 0 19 18" fill="none" xmlns="http://www.w3.org/2000/svg">
<g clip-path="url(#clip0_604_23794)">
<path d="M11.4603 8.34701L9.57778 10.252L9.55528 10.2295C8.10028 8.92451 6.42778 7.99451 4.65778 7.44701L4.65778 5.24951H3.15778L3.15778 10.4995H1.65778V11.9995H3.15778L3.15778 17.2495H4.65028L4.65028 8.87201C6.09778 9.37451 7.47028 10.1695 8.67028 11.2495C7.89778 11.947 7.05028 12.5245 6.15778 12.982L6.15778 14.482C7.38028 13.9345 8.53528 13.1845 9.57778 12.247L13.3428 16.0645L14.4078 14.9995L10.6578 11.2495L12.9903 8.91701L11.4603 8.34701ZM7.65778 4.12451L7.65778 5.62451L16.6578 8.99951V7.49951L14.4078 6.65951V3.09701L16.6578 2.24951V0.749512L7.65778 4.12451ZM12.9078 6.08951L9.66028 4.87451L12.9078 3.65951V6.08951Z" fill="#E6801A"/>
</g>
<defs>
<clipPath id="clip0_604_23794">
<rect width="18" height="18" fill="white" transform="matrix(0 -1 1 0 0.157104 17.9999)"/>
</clipPath>
</defs>
</svg>
