<svg width="36" height="37" viewBox="0 0 36 37" fill="none" xmlns="http://www.w3.org/2000/svg">
<path d="M31.4886 2.90137H4.51268C3.08634 2.90137 1.9292 4.05851 1.9292 5.48485V32.4607C1.9292 33.8871 3.08634 35.0442 4.51268 35.0442H31.4886C32.9149 35.0442 34.0721 33.8871 34.0721 32.4607V5.48485C34.0721 4.05851 32.9149 2.90137 31.4886 2.90137ZM31.4886 32.4728C13.4966 32.4688 4.50063 32.4648 4.50063 32.4607C4.50465 14.4688 4.50866 5.4728 4.51268 5.4728C22.5046 5.47681 31.5006 5.48083 31.5006 5.48485C31.4966 23.4768 31.4926 32.4728 31.4886 32.4728ZM6.69438 14.9509H11.4636V30.2911H6.69438V14.9509ZM9.08099 12.8536C10.6038 12.8536 11.8453 11.6161 11.8453 10.0893C11.8453 9.7263 11.7738 9.36685 11.6349 9.03147C11.4959 8.69609 11.2923 8.39136 11.0356 8.13467C10.7789 7.87798 10.4742 7.67437 10.1388 7.53545C9.80345 7.39653 9.444 7.32503 9.08099 7.32503C8.71797 7.32503 8.35852 7.39653 8.02314 7.53545C7.68776 7.67437 7.38303 7.87798 7.12634 8.13467C6.86965 8.39136 6.66604 8.69609 6.52712 9.03147C6.3882 9.36685 6.3167 9.7263 6.3167 10.0893C6.31268 11.6161 7.55018 12.8536 9.08099 12.8536ZM19.218 22.7014C19.218 20.7005 19.5997 18.7639 22.0788 18.7639C24.5216 18.7639 24.5578 21.05 24.5578 22.8299V30.2911H29.323V21.8777C29.323 17.7473 28.431 14.5692 23.6055 14.5692C21.2872 14.5692 19.7323 15.8429 19.0935 17.0482H19.0292V14.9509H14.4529V30.2911H19.218V22.7014Z" fill="#1C252E"/>
</svg>
