<svg width="98" height="88" viewBox="0 0 98 88" fill="none" xmlns="http://www.w3.org/2000/svg">
<path fill-rule="evenodd" clip-rule="evenodd" d="M28.9406 20.1217C20.4254 21.3806 11.4913 24.6219 6.70051 30.4619C4.39681 33.2701 3.84856 37.3339 4.43767 41.917C5.02476 46.4845 6.7274 51.4438 8.76372 55.9017C10.7991 60.3574 13.149 64.2716 15.0006 66.745C15.9326 67.99 16.6979 68.8146 17.2052 69.1799C17.2332 68.7756 17.2557 68.3584 17.2791 67.9268C17.3956 65.7744 17.5316 63.2627 18.455 60.1956C19.6053 56.3751 21.9646 51.7062 26.9574 45.622C30.7244 41.0316 35.3805 36.8636 39.3852 33.2788C40.6846 32.1156 41.9154 31.0139 43.025 29.979C45.3201 27.8385 47.0579 26.0203 47.9083 24.5227C48.3311 23.7783 48.4897 23.1886 48.4529 22.7251C48.4188 22.2965 48.2101 21.8808 47.6679 21.4729C47.1014 21.0467 46.197 20.6524 44.9761 20.3308C43.7657 20.012 42.2893 19.7761 40.6158 19.6397C37.2691 19.3668 33.1795 19.495 28.9406 20.1217ZM17.1722 69.5294C17.172 69.5291 17.1729 69.5253 17.1752 69.5192C17.1735 69.5266 17.1723 69.5297 17.1722 69.5294ZM45.3117 19.0411C46.6055 19.3819 47.6979 19.8308 48.4614 20.4052C49.2492 20.9978 49.7039 21.74 49.7738 22.6188C49.8408 23.4626 49.544 24.3299 49.0589 25.1841C48.0937 26.8836 46.2069 28.8293 43.9258 30.9568C42.7791 32.0263 41.5224 33.1513 40.206 34.3299C36.2152 37.9027 31.6746 41.9677 27.9792 46.4708C23.0685 52.4549 20.8107 56.9702 19.7232 60.5821C18.8503 63.4813 18.7232 65.8073 18.6061 67.9478C18.5768 68.4838 18.5482 69.0082 18.5086 69.527C18.4792 69.9118 18.3164 70.5149 17.6837 70.6515C17.4258 70.7072 17.1846 70.6526 16.9991 70.5819C16.8088 70.5093 16.6228 70.3989 16.4466 70.2731C15.7608 69.7833 14.8894 68.8124 13.9421 67.547C12.0247 64.9857 9.62811 60.9866 7.5597 56.4584C5.49227 51.9325 3.73399 46.8374 3.12352 42.088C2.51506 37.3543 3.0326 32.8387 5.67854 29.6132C10.7871 23.3859 20.1304 20.0767 28.7479 18.8027C33.0753 18.1629 37.2659 18.029 40.7228 18.3108C42.4511 18.4517 44.0073 18.6975 45.3117 19.0411Z" fill="#323B4D" stroke="#323B4D" stroke-width="0.3" stroke-linecap="round"/>
<path fill-rule="evenodd" clip-rule="evenodd" d="M76.8046 18.055C77.5101 19.4896 78.2506 20.995 79.0478 22.5513C79.6651 23.7564 80.2793 24.9308 80.8772 26.0743C82.9232 29.9869 84.7794 33.5366 85.9236 36.7069C87.4061 40.8145 87.7779 44.5046 85.6602 47.665C84.595 49.2546 83.2406 50.1047 81.6393 50.4204C80.075 50.7289 78.3158 50.5194 76.4288 50.095C75.0058 49.775 73.4566 49.3191 71.8164 48.8364C71.2817 48.679 70.7373 48.5187 70.1844 48.3595C67.9203 47.7071 65.4789 47.0591 62.8596 46.6387C60.2301 46.2166 57.8628 46.0212 55.7261 45.8759C55.3062 45.8473 54.8938 45.8206 54.4893 45.7945C52.8477 45.6882 51.3356 45.5904 49.9727 45.4095C48.2679 45.1831 46.7343 44.8202 45.3934 44.1126C44.0389 43.3978 42.9128 42.3482 41.9981 40.8012C41.0658 39.2245 40.9143 37.8639 41.449 36.5883C41.9509 35.3907 43.0238 34.3714 44.2342 33.3486C44.5903 33.0477 44.9651 32.7409 45.3533 32.4233C47.6677 30.5292 50.4572 28.2463 52.5926 24.489C54.5913 20.9721 55.3978 17.0977 56.1256 13.6014C56.3094 12.7181 56.4883 11.859 56.6801 11.0358C57.1458 9.03657 57.7012 7.20478 58.6579 5.87202C59.6535 4.48521 61.0643 3.66514 63.1023 3.66583C67.056 3.66669 69.6958 5.80986 71.9985 9.19054C73.6037 11.5472 75.1029 14.5952 76.8046 18.055ZM70.9055 9.94419C68.7286 6.74832 66.4411 4.99973 63.102 4.99902L63.102 4.99902C61.4935 4.99847 60.4809 5.60962 59.7321 6.65262C58.9446 7.74965 58.4347 9.34624 57.9702 11.3401C57.7917 12.1062 57.6218 12.9252 57.444 13.7817C56.7159 17.2911 55.8568 21.4313 53.7429 25.1508C51.4753 29.1407 48.4816 31.5863 46.1663 33.4778C45.786 33.7885 45.4239 34.0843 45.0865 34.3694C43.8611 35.4049 43.0328 36.2406 42.6699 37.1063C42.3397 37.8941 42.3597 38.8051 43.1369 40.1196C43.9317 41.4639 44.8804 42.3365 46.0089 42.932C47.151 43.5347 48.5086 43.8703 50.1461 44.0877C51.4606 44.2623 52.9153 44.3565 54.5518 44.4625C54.9614 44.489 55.3824 44.5163 55.8155 44.5457C57.966 44.692 60.3799 44.8906 63.0684 45.3221C65.7672 45.7553 68.269 46.4208 70.5492 47.0778C71.1229 47.2431 71.6804 47.4071 72.2226 47.5667C73.8504 48.0457 75.3405 48.4842 76.7178 48.7939C78.5538 49.2068 80.0949 49.3664 81.3844 49.1121C82.6369 48.8652 83.6898 48.2206 84.5615 46.9197C86.3174 44.2992 86.1145 41.1419 84.6781 37.162C83.5677 34.0853 81.7708 30.6483 79.7353 26.7549C79.1307 25.5984 78.505 24.4016 77.87 23.1621C77.0394 21.5408 76.2809 19.9985 75.5667 18.5463C73.8885 15.1339 72.4549 12.2189 70.9055 9.94419Z" fill="#323B4D" stroke="#323B4D" stroke-width="0.3" stroke-linecap="square"/>
<path d="M39.9241 87.5182C38.4809 87.5059 37.0424 87.3528 35.6286 87.0611C34.2357 86.7732 32.876 86.3418 31.5709 85.7738C30.9213 85.4899 30.2873 85.1711 29.6717 84.8188C29.0537 84.4647 28.4555 84.0766 27.88 83.6563C25.5283 81.9374 23.5968 79.7021 22.232 77.12C21.8979 76.4883 21.5987 75.8386 21.3358 75.1738C21.0747 74.5114 20.8492 73.8353 20.6602 73.1485C20.2833 71.7689 20.0486 70.3539 19.9598 68.926C19.8694 67.4768 19.9191 66.0223 20.108 64.5828C20.3007 63.1102 20.6286 61.6588 21.0876 60.2472C21.5617 58.797 22.1648 57.3928 22.8896 56.0517C23.2571 55.3699 23.661 54.6943 24.0905 54.0445C24.52 53.3946 24.995 52.7357 25.4886 52.1156C25.9822 51.4955 26.5226 50.8734 27.0831 50.2894C27.6436 49.7054 28.2509 49.1214 28.8713 48.5783C29.3718 48.1407 29.8923 47.7176 30.4197 47.3195C26.237 51.4703 23.6187 56.9549 23.013 62.8342C22.7187 65.5628 22.9815 68.3231 23.7855 70.9459C24.5895 73.5686 25.9176 75.9984 27.6884 78.0861C31.0058 81.8728 35.6257 84.2546 40.6183 84.7522C44.9217 84.5256 49.0698 83.0598 52.569 80.5293C56.0681 77.9987 58.7709 74.51 60.3558 70.4782C62.0337 65.1106 61.3209 59.3545 57.9602 55.0252C54.7491 50.8928 49.6967 48.803 44.3885 48.9196C41.5969 49.526 38.9916 50.7999 36.7927 52.6334C34.5939 54.467 32.8662 56.8063 31.7558 59.4535C30.6455 62.1008 30.185 64.9781 30.4135 67.8423C30.6419 70.7064 31.5525 73.473 33.0682 75.9083C33.5105 76.4413 34.004 76.9292 34.5414 77.3648C36.382 78.861 38.6756 79.6793 41.0419 79.684C43.4082 79.6886 45.7049 78.8794 47.5513 77.3905C49.2091 75.7036 50.1852 73.4573 50.2903 71.0874C50.3954 68.7175 49.622 66.3928 48.1201 64.564C47.3646 63.6185 46.4556 62.8083 45.4315 62.1677C44.8176 61.8373 44.1653 61.5847 43.4895 61.4159C42.2321 61.1169 41.2642 61.2938 40.7651 61.9139C40.2888 62.5062 40.295 63.4446 40.783 64.5571C41.3977 65.8318 42.2766 66.9592 43.3606 67.8634C43.2455 67.7753 43.1304 67.6852 43.0159 67.5936C42.3723 67.0727 41.7814 66.4891 41.2518 65.8513C41.0153 65.5652 40.7948 65.2661 40.5914 64.9552C40.4069 64.6736 40.2411 64.38 40.095 64.0764C39.9653 63.8085 39.8581 63.5301 39.7745 63.2441C39.7014 62.9944 39.657 62.737 39.6421 62.477C39.6291 62.2503 39.6524 62.0229 39.7111 61.8036C39.7647 61.6015 39.8599 61.413 39.9905 61.2502C40.1212 61.0875 40.2843 60.9542 40.4694 60.8589C40.6704 60.7555 40.8866 60.6852 41.1098 60.6508C41.3657 60.6114 41.6252 60.6016 41.8833 60.6217C42.1545 60.6419 42.4237 60.6834 42.6885 60.7459C42.9525 60.7805 43.2158 60.8249 43.4744 60.8776C43.8253 60.947 44.1761 61.0379 44.5174 61.1412C44.8586 61.2445 45.1888 61.3631 45.5135 61.4963C45.8382 61.6295 46.1519 61.7737 46.458 61.9367C47.0627 62.2541 47.6366 62.6275 48.1725 63.052C48.6971 63.4679 49.1818 63.9323 49.6201 64.4392C50.0534 64.9409 50.4376 65.4835 50.7673 66.0594C51.0949 66.6319 51.3646 67.2361 51.5725 67.8627C51.6762 68.1775 51.7636 68.4974 51.8344 68.8212C52.2733 70.8227 52.0556 72.9133 51.214 74.7798C51.0778 75.0818 50.9261 75.3765 50.7597 75.6628C50.4267 76.2322 50.0378 76.7666 49.5988 77.258C49.3375 77.5513 49.0597 77.8292 48.7667 78.0903C47.9405 78.9813 46.966 79.7205 45.8872 80.2744C45.5859 80.4291 45.2729 80.5706 44.9579 80.6905C44.6429 80.8105 44.3106 80.9264 43.9811 81.0186C43.6453 81.113 43.305 81.1903 42.9615 81.2503C42.2608 81.372 41.5496 81.422 40.8389 81.3994C40.4904 81.3881 40.1428 81.3592 39.7972 81.3127C39.4581 81.2669 39.1175 81.2038 38.7845 81.124C38.4516 81.0443 38.1262 80.9493 37.8063 80.839C36.5365 80.3988 35.3633 79.7158 34.3512 78.8276C33.9767 78.4988 33.6258 78.1437 33.3013 77.765C32.7018 77.2351 32.1447 76.6586 31.635 76.0408C30.9646 75.2246 30.3773 74.3428 29.882 73.4086C29.3847 72.4696 28.9786 71.4846 28.6693 70.4671C28.3563 69.4362 28.1403 68.378 28.0241 67.3065C27.9061 66.2143 27.8895 65.1134 27.9745 64.0182C28.062 62.8929 28.254 61.7783 28.548 60.689C29.16 58.4304 30.189 56.3078 31.5813 54.4322C32.2529 53.5294 33.0069 52.6919 33.8335 51.9304C34.6382 51.1898 35.5096 50.5262 36.4365 49.9481C37.3473 49.3805 38.3091 48.9003 39.3092 48.5138C39.8538 48.3037 40.409 48.1226 40.9726 47.9714C41.1045 47.9252 41.2369 47.8817 41.3697 47.841C42.5386 47.4694 43.7383 47.2045 44.9545 47.0497C46.1344 46.8996 47.3257 46.8597 48.513 46.9304C49.6745 46.9997 50.8265 47.1823 51.953 47.4755C53.0621 47.7648 54.1386 48.1683 55.1655 48.6796C56.1902 49.1907 57.1562 49.8131 58.0464 50.5356C59.8652 52.0168 61.3242 53.896 62.3122 56.0302C62.7937 57.0735 63.1603 58.1666 63.4056 59.29C63.5874 60.1192 63.7059 60.9611 63.7599 61.8084C63.8668 62.4583 63.9426 63.1144 63.9881 63.7727C64.0819 65.1448 64.0445 66.5228 63.8764 67.8877C63.7056 69.2621 63.4058 70.6172 62.9809 71.9347C62.1082 74.6419 60.7275 77.1556 58.9136 79.3395C58.449 79.8992 57.9485 80.4443 57.4321 80.9583C56.9158 81.4722 56.3464 81.9834 55.7687 82.4536C55.191 82.9239 54.5857 83.3706 53.9687 83.7798C53.3517 84.189 52.7278 84.5601 52.0867 84.9013C50.8253 85.5717 49.5027 86.1187 48.1373 86.5347C46.802 86.9419 45.4314 87.2208 44.0438 87.3677C43.1784 87.458 42.3085 87.4962 41.4386 87.4821C41.0043 87.5066 40.5712 87.5189 40.1392 87.5189L39.9241 87.5182Z" fill="#323B4D"/>
<path fill-rule="evenodd" clip-rule="evenodd" d="M71.8204 32.4333C69.9367 32.1561 68.6331 30.3951 68.9085 28.5C69.184 26.6049 70.9343 25.2933 72.8179 25.5704C74.7015 25.8476 76.0052 27.6086 75.7297 29.5037C75.4543 31.3988 73.704 32.7104 71.8204 32.4333ZM71.7019 27.5515C71.7933 27.4497 71.8525 27.3229 71.8723 27.1872C71.8987 27.0051 71.8522 26.82 71.743 26.6725C71.6338 26.525 71.4708 26.4271 71.2899 26.4005C71.155 26.3807 71.0173 26.4015 70.8941 26.4604C70.771 26.5193 70.668 26.6136 70.5981 26.7314C70.5283 26.8492 70.4947 26.9852 70.5017 27.1222C70.5087 27.2592 70.5558 27.3911 70.6373 27.5011C70.7187 27.6111 70.8308 27.6944 70.9592 27.7403C71.0877 27.7863 71.2268 27.7928 71.359 27.7592C71.4912 27.7256 71.6105 27.6534 71.7019 27.5515Z" fill="#323B4D"/>
<path fill-rule="evenodd" clip-rule="evenodd" d="M69.0397 28.5193C68.7748 30.3416 70.0283 32.0349 71.8395 32.3014C73.6507 32.5679 75.3337 31.3067 75.5986 29.4844C75.8635 27.6621 74.61 25.9689 72.7987 25.7024C70.9875 25.4359 69.3045 26.6971 69.0397 28.5193ZM72.0034 27.2064C71.9799 27.3683 71.9092 27.5194 71.8003 27.6409C71.6913 27.7623 71.5491 27.8484 71.3915 27.8885C71.2339 27.9286 71.068 27.9207 70.9149 27.8659C70.7617 27.8111 70.6281 27.7119 70.531 27.5807C70.4339 27.4496 70.3777 27.2924 70.3694 27.1291C70.361 26.9657 70.4011 26.8036 70.4843 26.6631C70.5676 26.5227 70.6904 26.4102 70.8372 26.34C70.984 26.2698 71.1482 26.2449 71.3091 26.2686C71.5248 26.3003 71.7191 26.417 71.8493 26.5928C71.9795 26.7687 72.0349 26.9895 72.0034 27.2064ZM68.9085 28.5C68.6331 30.3951 69.9367 32.1561 71.8204 32.4333C73.704 32.7104 75.4543 31.3988 75.7297 29.5037C76.0052 27.6086 74.7015 25.8476 72.8179 25.5704C70.9343 25.2933 69.184 26.6049 68.9085 28.5ZM71.8723 27.1872C71.8525 27.3229 71.7933 27.4497 71.7019 27.5515C71.6105 27.6534 71.4912 27.7256 71.359 27.7592C71.2268 27.7928 71.0877 27.7863 70.9592 27.7403C70.8308 27.6944 70.7187 27.6111 70.6373 27.5011C70.5558 27.3911 70.5087 27.2592 70.5017 27.1222C70.4947 26.9852 70.5283 26.8492 70.5981 26.7314C70.668 26.6136 70.771 26.5193 70.8941 26.4604C71.0173 26.4015 71.155 26.3807 71.2899 26.4005C71.4708 26.4271 71.6338 26.525 71.743 26.6725C71.8522 26.82 71.8987 27.0051 71.8723 27.1872Z" fill="#323B4D"/>
</svg>
