<svg width="31" height="27" viewBox="0 0 31 27" fill="none" xmlns="http://www.w3.org/2000/svg">
<path fill-rule="evenodd" clip-rule="evenodd" d="M8.93107 6.20773C6.28806 6.59611 3.515 7.59606 2.028 9.39773C1.31296 10.2641 1.14279 11.5178 1.32564 12.9317C1.50787 14.3408 2.03635 15.8708 2.6684 17.2461C3.30015 18.6207 4.02956 19.8282 4.60425 20.5913C4.89354 20.9754 5.13108 21.2297 5.28853 21.3424C5.29722 21.2177 5.30423 21.089 5.31148 20.9559C5.34765 20.2918 5.38985 19.5169 5.67648 18.5707C6.03351 17.3921 6.7658 15.9517 8.31552 14.0747C9.48474 12.6585 10.93 11.3727 12.173 10.2668C12.5763 9.90793 12.9583 9.56803 13.3027 9.24877C14.0151 8.5884 14.5545 8.02748 14.8185 7.56546C14.9497 7.33582 14.9989 7.1539 14.9875 7.01089C14.9769 6.87867 14.9121 6.75041 14.7438 6.62458C14.568 6.4931 14.2873 6.37145 13.9083 6.27224C13.5326 6.17388 13.0744 6.10112 12.5549 6.05902C11.5161 5.97483 10.2468 6.01439 8.93107 6.20773ZM5.27829 21.4503C5.27825 21.4502 5.27851 21.449 5.27923 21.4471C5.2787 21.4494 5.27834 21.4504 5.27829 21.4503ZM14.0125 5.87435C14.4141 5.97949 14.7531 6.11798 14.9901 6.29518C15.2347 6.47803 15.3758 6.70698 15.3975 6.9781C15.4183 7.23842 15.3261 7.50597 15.1756 7.7695C14.876 8.29381 14.2903 8.89407 13.5823 9.5504C13.2264 9.88035 12.8363 10.2274 12.4277 10.591C11.189 11.6933 9.77967 12.9473 8.63268 14.3366C7.10845 16.1827 6.40764 17.5757 6.07011 18.69C5.79917 19.5844 5.7597 20.302 5.72337 20.9623C5.71428 21.1277 5.70538 21.2895 5.69309 21.4495C5.68398 21.5682 5.63346 21.7543 5.43705 21.7964C5.35703 21.8136 5.28214 21.7968 5.22458 21.775C5.1655 21.7526 5.10776 21.7185 5.05309 21.6797C4.84021 21.5286 4.56973 21.2291 4.27571 20.8387C3.68058 20.0485 2.9367 18.8148 2.29468 17.4178C1.65298 16.0215 1.10723 14.4497 0.917745 12.9844C0.728886 11.5241 0.889524 10.131 1.7108 9.13592C3.29643 7.21474 6.19649 6.19386 8.87127 5.8008C10.2145 5.60343 11.5152 5.56211 12.5881 5.64907C13.1246 5.69254 13.6076 5.76836 14.0125 5.87435Z" fill="#1C252E" stroke="#1C252E" stroke-width="0.3" stroke-linecap="round"/>
<path fill-rule="evenodd" clip-rule="evenodd" d="M23.7872 5.57006C24.0062 6.01264 24.2361 6.47707 24.4835 6.95719C24.6751 7.32896 24.8658 7.69129 25.0514 8.04406C25.6864 9.25111 26.2625 10.3462 26.6177 11.3243C27.0778 12.5915 27.1933 13.7299 26.5359 14.7049C26.2053 15.1953 25.7849 15.4575 25.2879 15.555C24.8024 15.6501 24.2563 15.5855 23.6706 15.4546C23.2289 15.3559 22.7481 15.2152 22.239 15.0663C22.073 15.0177 21.904 14.9683 21.7324 14.9191C21.0297 14.7179 20.2719 14.518 19.4589 14.3883C18.6427 14.2581 17.9079 14.1978 17.2447 14.1529C17.1144 14.1441 16.9864 14.1359 16.8608 14.1278C16.3513 14.0951 15.8819 14.0649 15.4589 14.0091C14.9298 13.9392 14.4538 13.8273 14.0376 13.609C13.6171 13.3884 13.2676 13.0646 12.9837 12.5874C12.6943 12.101 12.6473 11.6812 12.8133 11.2877C12.9691 10.9182 13.3021 10.6037 13.6778 10.2882C13.7883 10.1954 13.9046 10.1008 14.0251 10.0028C14.7435 9.41842 15.6093 8.71414 16.2721 7.55499C16.8925 6.47 17.1428 5.27472 17.3687 4.19611C17.4258 3.92361 17.4813 3.65855 17.5408 3.40461C17.6854 2.78783 17.8578 2.22271 18.1547 1.81155C18.4637 1.38371 18.9016 1.13072 19.5342 1.13093C20.7614 1.13119 21.5808 1.79237 22.2955 2.83533C22.7937 3.56237 23.2591 4.50269 23.7872 5.57006ZM21.9562 3.06783C21.2806 2.08189 20.5705 1.54244 19.5341 1.54222L19.5341 1.54222C19.0349 1.54205 18.7206 1.7306 18.4882 2.05237C18.2437 2.39081 18.0854 2.88336 17.9413 3.49847C17.8859 3.73482 17.8331 3.98748 17.7779 4.25173C17.5519 5.33439 17.2853 6.61167 16.6292 7.75915C15.9253 8.99005 14.9961 9.74455 14.2775 10.3281C14.1594 10.4239 14.047 10.5152 13.9423 10.6032C13.562 10.9226 13.3049 11.1804 13.1922 11.4475C13.0897 11.6905 13.0959 11.9716 13.3372 12.3771C13.5839 12.7918 13.8784 13.061 14.2286 13.2447C14.5831 13.4307 15.0045 13.5342 15.5127 13.6013C15.9208 13.6551 16.3723 13.6842 16.8802 13.7169C17.0074 13.7251 17.138 13.7335 17.2725 13.7426C17.94 13.7877 18.6892 13.849 19.5237 13.9821C20.3614 14.1158 21.1379 14.3211 21.8457 14.5237C22.0237 14.5747 22.1968 14.6253 22.3651 14.6746C22.8703 14.8224 23.3328 14.9576 23.7603 15.0532C24.3302 15.1805 24.8085 15.2298 25.2088 15.1513C25.5975 15.0752 25.9243 14.8763 26.1949 14.475C26.7399 13.6665 26.6769 12.6925 26.2311 11.4647C25.8864 10.5155 25.3287 9.45516 24.6969 8.25404C24.5092 7.89725 24.315 7.52803 24.1179 7.14562C23.8601 6.64544 23.6247 6.16965 23.403 5.72164C22.8821 4.6689 22.4371 3.76959 21.9562 3.06783Z" fill="#1C252E" stroke="#1C252E" stroke-width="0.3" stroke-linecap="square"/>
<path d="M12.3402 26.9997C11.8923 26.9959 11.4458 26.9486 11.0069 26.8587C10.5746 26.7698 10.1526 26.6368 9.7475 26.4615C9.54586 26.3739 9.34908 26.2756 9.158 26.1669C8.96617 26.0576 8.78052 25.9379 8.60188 25.8083C7.87195 25.278 7.27242 24.5883 6.84879 23.7918C6.7451 23.5969 6.65224 23.3964 6.57062 23.1913C6.48958 22.987 6.41958 22.7784 6.36093 22.5665C6.24395 22.1409 6.1711 21.7044 6.14353 21.2639C6.11548 20.8168 6.13089 20.3681 6.18953 19.924C6.24935 19.4697 6.35114 19.0219 6.49359 18.5864C6.64074 18.139 6.82794 17.7058 7.05292 17.2921C7.16697 17.0817 7.29236 16.8733 7.42566 16.6728C7.55897 16.4723 7.7064 16.2691 7.8596 16.0778C8.01281 15.8865 8.18056 15.6945 8.35452 15.5144C8.52849 15.3342 8.717 15.154 8.90957 14.9865C9.06492 14.8515 9.22647 14.721 9.39016 14.5981C8.09192 15.8787 7.27922 17.5707 7.09122 19.3845C6.99986 20.2263 7.08145 21.0779 7.33099 21.887C7.58053 22.6961 7.99277 23.4457 8.54239 24.0898C9.57208 25.258 11.0061 25.9928 12.5557 26.1463C13.8914 26.0764 15.179 25.6242 16.2651 24.8435C17.3511 24.0629 18.1901 22.9866 18.682 21.7427C19.2028 20.0868 18.9816 18.311 17.9384 16.9754C16.9417 15.7005 15.3735 15.0558 13.7259 15.0918C12.8595 15.2789 12.0508 15.6719 11.3683 16.2375C10.6858 16.8032 10.1495 17.5249 9.80489 18.3416C9.46024 19.1583 9.31733 20.0459 9.38823 20.9295C9.45914 21.8131 9.74178 22.6667 10.2122 23.4179C10.3495 23.5824 10.5027 23.7329 10.6695 23.8673C11.2408 24.3289 11.9527 24.5813 12.6872 24.5828C13.4216 24.5842 14.1345 24.3345 14.7076 23.8752C15.2222 23.3548 15.5252 22.6618 15.5578 21.9307C15.5904 21.1996 15.3503 20.4824 14.8842 19.9182C14.6497 19.6265 14.3675 19.3765 14.0497 19.1789C13.8591 19.077 13.6566 18.9991 13.4469 18.947C13.0566 18.8547 12.7562 18.9093 12.6013 19.1006C12.4534 19.2833 12.4553 19.5728 12.6068 19.916C12.7976 20.3093 13.0704 20.6571 13.4069 20.9361C13.3712 20.9089 13.3354 20.8811 13.2999 20.8528C13.1001 20.6921 12.9167 20.5121 12.7523 20.3153C12.6789 20.2271 12.6105 20.1348 12.5474 20.0389C12.4901 19.952 12.4386 19.8614 12.3933 19.7678C12.353 19.6851 12.3197 19.5992 12.2938 19.511C12.2711 19.4339 12.2573 19.3545 12.2527 19.2743C12.2487 19.2044 12.2559 19.1342 12.2741 19.0666C12.2908 19.0042 12.3203 18.9461 12.3608 18.8959C12.4014 18.8457 12.452 18.8045 12.5095 18.7751C12.5719 18.7432 12.639 18.7216 12.7083 18.7109C12.7877 18.6988 12.8682 18.6958 12.9483 18.702C13.0325 18.7082 13.1161 18.721 13.1983 18.7403C13.2802 18.751 13.362 18.7646 13.4422 18.7809C13.5511 18.8023 13.66 18.8303 13.7659 18.8622C13.8719 18.8941 13.9743 18.9307 14.0751 18.9718C14.1759 19.0129 14.2733 19.0574 14.3683 19.1076C14.556 19.2056 14.7341 19.3208 14.9004 19.4517C15.0633 19.58 15.2137 19.7233 15.3498 19.8797C15.4843 20.0344 15.6035 20.2018 15.7058 20.3795C15.8075 20.5561 15.8912 20.7425 15.9557 20.9358C15.9879 21.0329 16.0151 21.1316 16.0371 21.2316C16.1733 21.849 16.1057 22.494 15.8445 23.0698C15.8022 23.163 15.7551 23.2539 15.7035 23.3422C15.6001 23.5179 15.4794 23.6827 15.3431 23.8343C15.2621 23.9248 15.1758 24.0106 15.0849 24.0911C14.8284 24.366 14.526 24.594 14.1911 24.7649C14.0976 24.8126 14.0004 24.8563 13.9027 24.8933C13.8049 24.9303 13.7017 24.966 13.5995 24.9945C13.4952 25.0236 13.3896 25.0475 13.283 25.066C13.0655 25.1035 12.8448 25.119 12.6242 25.112C12.516 25.1085 12.4081 25.0996 12.3009 25.0852C12.1956 25.0711 12.0899 25.0516 11.9865 25.027C11.8832 25.0024 11.7822 24.9731 11.6829 24.9391C11.2888 24.8033 10.9246 24.5926 10.6105 24.3186C10.4942 24.2171 10.3853 24.1076 10.2846 23.9908C10.0985 23.8273 9.92558 23.6494 9.7674 23.4588C9.5593 23.207 9.37701 22.935 9.22326 22.6468C9.06891 22.3571 8.94287 22.0532 8.84688 21.7393C8.74971 21.4213 8.68266 21.0948 8.6466 20.7642C8.60997 20.4273 8.60482 20.0877 8.63119 19.7498C8.65836 19.4026 8.71796 19.0588 8.80922 18.7227C8.99917 18.0259 9.31856 17.3711 9.75071 16.7924C9.95916 16.514 10.1932 16.2556 10.4498 16.0206C10.6995 15.7922 10.97 15.5874 11.2577 15.4091C11.5404 15.234 11.8389 15.0858 12.1494 14.9666C12.3184 14.9018 12.4907 14.8459 12.6657 14.7993C12.7066 14.785 12.7477 14.7716 12.7889 14.7591C13.1517 14.6444 13.5241 14.5627 13.9016 14.5149C14.2679 14.4686 14.6376 14.4563 15.0061 14.4781C15.3666 14.4995 15.7242 14.5558 16.0739 14.6463C16.4181 14.7355 16.7522 14.86 17.071 15.0177C17.389 15.1754 17.6889 15.3674 17.9652 15.5903C18.5297 16.0473 18.9826 16.627 19.2893 17.2854C19.4387 17.6073 19.5525 17.9445 19.6286 18.2911C19.6851 18.5469 19.7218 18.8067 19.7386 19.0681C19.7718 19.2686 19.7953 19.471 19.8094 19.674C19.8385 20.0973 19.8269 20.5225 19.7748 20.9435C19.7217 21.3676 19.6287 21.7856 19.4968 22.1921C19.2259 23.0273 18.7974 23.8027 18.2344 24.4765C18.0901 24.6492 17.9348 24.8173 17.7745 24.9759C17.6143 25.1344 17.4375 25.2921 17.2582 25.4372C17.0789 25.5823 16.891 25.7201 16.6995 25.8463C16.508 25.9726 16.3144 26.0871 16.1154 26.1923C15.7238 26.3992 15.3133 26.5679 14.8895 26.6962C14.4751 26.8219 14.0496 26.9079 13.6189 26.9532C13.3503 26.9811 13.0803 26.9929 12.8103 26.9885C12.6755 26.9961 12.5411 26.9999 12.407 26.9999L12.3402 26.9997Z" fill="#1C252E"/>
<path fill-rule="evenodd" clip-rule="evenodd" d="M18.2344 24.4765C18.0901 24.6492 17.9348 24.8173 17.7745 24.9759C17.6143 25.1344 17.4375 25.2921 17.2582 25.4372C17.0789 25.5823 16.891 25.7201 16.6995 25.8463C16.508 25.9726 16.3144 26.0871 16.1154 26.1923C15.7238 26.3992 15.3133 26.5679 14.8895 26.6962C14.4751 26.8219 14.0496 26.9079 13.6189 26.9532C13.3503 26.9811 13.0803 26.9929 12.8103 26.9885C12.6755 26.9961 12.5411 26.9999 12.407 26.9999L12.3402 26.9997C11.8923 26.9959 11.4458 26.9486 11.0069 26.8587C10.5746 26.7698 10.1526 26.6368 9.7475 26.4615C9.54586 26.3739 9.34908 26.2756 9.158 26.1669C8.96617 26.0576 8.78052 25.9379 8.60188 25.8083C7.87195 25.278 7.27242 24.5883 6.84879 23.7918C6.7451 23.5969 6.65224 23.3964 6.57062 23.1913C6.48958 22.987 6.41958 22.7784 6.36093 22.5665C6.24395 22.1409 6.1711 21.7044 6.14353 21.2639C6.11548 20.8168 6.13089 20.3681 6.18953 19.924C6.24935 19.4697 6.35114 19.0219 6.49359 18.5864C6.64074 18.139 6.82794 17.7058 7.05292 17.2921C7.16697 17.0817 7.29236 16.8733 7.42566 16.6728C7.55897 16.4723 7.7064 16.2691 7.8596 16.0778C8.01281 15.8865 8.18056 15.6945 8.35452 15.5144C8.52849 15.3342 8.717 15.154 8.90957 14.9865C8.98864 14.9178 9.06931 14.8502 9.15105 14.7843C9.22992 14.7206 9.30978 14.6585 9.39016 14.5981C9.31831 14.669 9.24795 14.7411 9.17909 14.8145C8.00387 16.0664 7.26881 17.6711 7.09122 19.3845C6.99986 20.2263 7.08145 21.0779 7.33099 21.887C7.58053 22.6961 7.99277 23.4457 8.54239 24.0898C9.57208 25.258 11.0061 25.9928 12.5557 26.1463C13.8914 26.0764 15.179 25.6242 16.2651 24.8435C17.3512 24.0629 18.1901 22.9866 18.682 21.7427C19.2028 20.0868 18.9816 18.311 17.9384 16.9754C16.9417 15.7005 15.3735 15.0558 13.7259 15.0918C12.8595 15.2789 12.0508 15.6719 11.3683 16.2375C10.6858 16.8032 10.1495 17.5249 9.80489 18.3416C9.46024 19.1583 9.31733 20.0459 9.38823 20.9295C9.45914 21.8131 9.74178 22.6667 10.2122 23.4179C10.3495 23.5824 10.5027 23.7329 10.6695 23.8673C11.2408 24.3289 11.9527 24.5813 12.6872 24.5828C13.4216 24.5842 14.1345 24.3345 14.7076 23.8752C15.2222 23.3548 15.5252 22.6618 15.5578 21.9307C15.5904 21.1996 15.3503 20.4824 14.8842 19.9182C14.6497 19.6265 14.3675 19.3765 14.0497 19.1789C13.8591 19.077 13.6566 18.9991 13.4469 18.947C13.0566 18.8547 12.7562 18.9093 12.6013 19.1006C12.4534 19.2833 12.4553 19.5728 12.6068 19.916C12.7116 20.132 12.8411 20.3342 12.9922 20.5188C13.0879 20.6356 13.1922 20.7454 13.3044 20.8472L13.3044 20.8472C13.3379 20.8775 13.372 20.9072 13.4069 20.9361C13.3712 20.9089 13.3354 20.8811 13.2999 20.8528C13.1812 20.7573 13.0682 20.6549 12.9616 20.5463C12.8888 20.4722 12.819 20.3951 12.7523 20.3153C12.6789 20.2271 12.6105 20.1348 12.5474 20.0389C12.4901 19.952 12.4386 19.8614 12.3933 19.7678C12.353 19.6851 12.3197 19.5992 12.2938 19.511C12.2711 19.4339 12.2573 19.3545 12.2527 19.2743C12.2487 19.2044 12.2559 19.1342 12.2741 19.0666C12.2908 19.0042 12.3203 18.9461 12.3608 18.8959C12.4014 18.8457 12.452 18.8045 12.5095 18.7751C12.5719 18.7432 12.639 18.7216 12.7083 18.7109C12.7877 18.6988 12.8682 18.6958 12.9483 18.702C13.0325 18.7082 13.1161 18.721 13.1983 18.7403C13.2802 18.751 13.362 18.7646 13.4422 18.7809C13.5511 18.8023 13.66 18.8303 13.7659 18.8622C13.8719 18.8941 13.9743 18.9307 14.0751 18.9718C14.1759 19.0129 14.2733 19.0574 14.3683 19.1076C14.556 19.2056 14.7341 19.3208 14.9004 19.4517C15.0633 19.58 15.2137 19.7233 15.3498 19.8797C15.4843 20.0344 15.6035 20.2018 15.7058 20.3795C15.8075 20.5561 15.8912 20.7425 15.9557 20.9358C15.9879 21.0329 16.0151 21.1316 16.0371 21.2316C16.1733 21.849 16.1057 22.494 15.8445 23.0698C15.8022 23.163 15.7551 23.2539 15.7035 23.3422C15.6001 23.5179 15.4794 23.6827 15.3431 23.8343C15.2621 23.9248 15.1758 24.0106 15.0849 24.0911C14.8284 24.366 14.526 24.594 14.1911 24.7649C14.0976 24.8126 14.0005 24.8563 13.9027 24.8933C13.8049 24.9303 13.7017 24.966 13.5995 24.9945C13.4952 25.0236 13.3896 25.0475 13.283 25.066C13.0655 25.1035 12.8448 25.119 12.6242 25.112C12.516 25.1085 12.4081 25.0996 12.3009 25.0852C12.1956 25.0711 12.0899 25.0516 11.9865 25.027C11.8832 25.0024 11.7822 24.9731 11.6829 24.9391C11.2888 24.8033 10.9246 24.5926 10.6105 24.3186C10.4942 24.2171 10.3853 24.1076 10.2846 23.9908C10.0985 23.8273 9.92558 23.6494 9.7674 23.4588C9.5593 23.207 9.37701 22.935 9.22326 22.6468C9.06891 22.3571 8.94287 22.0532 8.84688 21.7393C8.74971 21.4213 8.68266 21.0948 8.6466 20.7642C8.60997 20.4273 8.60482 20.0877 8.63119 19.7498C8.65836 19.4026 8.71796 19.0588 8.80922 18.7227C8.99917 18.0259 9.31856 17.3711 9.75071 16.7924C9.95916 16.514 10.1932 16.2556 10.4498 16.0206C10.6995 15.7922 10.97 15.5874 11.2577 15.4091C11.5404 15.234 11.8389 15.0858 12.1494 14.9666C12.3184 14.9018 12.4907 14.8459 12.6657 14.7993C12.7066 14.785 12.7477 14.7716 12.7889 14.7591C13.1517 14.6444 13.5241 14.5627 13.9016 14.5149C14.2679 14.4686 14.6376 14.4563 15.0061 14.4781C15.3666 14.4995 15.7242 14.5558 16.0739 14.6463C16.4181 14.7355 16.7522 14.86 17.071 15.0177C17.389 15.1754 17.6889 15.3674 17.9652 15.5903C18.5297 16.0473 18.9826 16.627 19.2893 17.2854C19.4387 17.6073 19.5525 17.9445 19.6286 18.2911C19.6851 18.5469 19.7218 18.8067 19.7386 19.0681" fill="#1C252E"/>
<path fill-rule="evenodd" clip-rule="evenodd" d="M22.2407 10.0057C21.6561 9.92024 21.2514 9.37697 21.3369 8.79231C21.4224 8.20766 21.9657 7.80302 22.5503 7.88852C23.135 7.97402 23.5396 8.51729 23.4541 9.10195C23.3686 9.6866 22.8254 10.0912 22.2407 10.0057ZM22.2039 8.49969C22.2323 8.46828 22.2507 8.42916 22.2568 8.38729C22.265 8.33113 22.2506 8.27402 22.2167 8.22851C22.1828 8.18299 22.1322 8.15281 22.0761 8.1446C22.0342 8.13848 21.9914 8.14491 21.9532 8.16308C21.915 8.18125 21.883 8.21035 21.8613 8.24669C21.8397 8.28304 21.8292 8.32499 21.8314 8.36726C21.8336 8.40952 21.8482 8.4502 21.8735 8.48414C21.8988 8.51808 21.9336 8.54376 21.9734 8.55794C22.0133 8.57211 22.0565 8.57414 22.0975 8.56378C22.1385 8.55341 22.1756 8.53111 22.2039 8.49969Z" fill="#1C252E"/>
<path fill-rule="evenodd" clip-rule="evenodd" d="M21.3776 8.79826C21.2954 9.36044 21.6845 9.88283 22.2467 9.96504C22.8088 10.0473 23.3312 9.65817 23.4134 9.09599C23.4957 8.53382 23.1066 8.01143 22.5444 7.92922C21.9822 7.847 21.4598 8.23609 21.3776 8.79826ZM22.2975 8.39324C22.2902 8.44316 22.2683 8.4898 22.2345 8.52725C22.2007 8.56471 22.1565 8.59129 22.1076 8.60365C22.0587 8.61601 22.0072 8.61359 21.9596 8.59669C21.9121 8.57979 21.8706 8.54917 21.8405 8.50871C21.8104 8.46824 21.7929 8.41975 21.7903 8.36936C21.7878 8.31897 21.8002 8.26895 21.826 8.22562C21.8519 8.18229 21.89 8.1476 21.9356 8.12593C21.9811 8.10427 22.0321 8.0966 22.082 8.1039C22.149 8.11369 22.2093 8.14968 22.2497 8.20394C22.2901 8.2582 22.3073 8.32629 22.2975 8.39324ZM21.3369 8.79231C21.2514 9.37697 21.6561 9.92024 22.2407 10.0057C22.8254 10.0912 23.3686 9.6866 23.4541 9.10195C23.5396 8.51729 23.135 7.97402 22.5503 7.88852C21.9657 7.80302 21.4224 8.20766 21.3369 8.79231ZM22.2568 8.38729C22.2507 8.42916 22.2323 8.46828 22.2039 8.49969C22.1756 8.53111 22.1385 8.55341 22.0975 8.56378C22.0565 8.57414 22.0133 8.57211 21.9734 8.55794C21.9336 8.54376 21.8988 8.51808 21.8735 8.48414C21.8482 8.4502 21.8336 8.40952 21.8314 8.36726C21.8292 8.32499 21.8397 8.28304 21.8613 8.24669C21.883 8.21035 21.915 8.18125 21.9532 8.16308C21.9914 8.14491 22.0342 8.13848 22.0761 8.1446C22.1322 8.15281 22.1828 8.18299 22.2167 8.22851C22.2506 8.27402 22.265 8.33113 22.2568 8.38729Z" fill="#1C252E"/>
</svg>
