<svg width="247" height="247" viewBox="0 0 247 247" fill="none" xmlns="http://www.w3.org/2000/svg">
<mask id="path-1-inside-1_362_23717" fill="white">
<path d="M240.574 128.676C233.838 122.241 223.858 120.948 215.443 125.703C207.605 130.129 203.3 139.891 205.484 148.576C205.952 150.431 205.602 151.605 203.995 152.631C197.496 156.776 191.035 160.974 184.612 165.226C183.402 166.03 182.516 166.019 181.522 164.819C177.696 160.183 172.984 156.602 167.793 153.62C165.29 152.177 165.275 152.121 166.217 149.498C172.077 133.013 178.123 116.585 183.958 100.085C184.596 98.2661 185.456 97.7973 187.341 98.2146C193.067 99.4903 198.982 99.6651 204.773 98.7297C216.823 96.7979 226.917 91.2651 234.93 82.1211C241.032 75.1562 245.116 67.0476 246.331 57.816C247.758 46.972 246.97 36.3237 241.624 26.4533C236.397 16.7838 229.002 9.33979 219.063 4.47156C213.749 1.89578 208.213 0.221517 202.286 0H196.502C195.782 0.777886 194.875 0.437883 194.015 0.412125H191.626C181.048 1.47335 171.974 5.87278 164.162 12.951C159.685 16.9889 156.001 21.8265 153.296 27.2157C152.807 28.1945 152.421 28.4624 151.319 28.0194C147.827 26.6336 144.284 25.3715 140.741 24.1248C139.845 23.8105 139.459 23.4242 139.562 22.4093C140.69 11.3283 132.353 1.41668 121.765 0.257578C121.626 0.257578 121.502 0.0927284 121.368 0.0103034H117.037C111.64 1.04062 106.913 3.24033 103.319 7.63462C96.0626 16.5056 97.4891 29.2969 106.666 36.7307C115.235 43.6698 128.387 42.1553 135.159 33.243C136.431 31.5688 137.368 31.5585 139.021 32.2127C142.111 33.4749 145.314 34.5722 148.476 35.6952C149.439 36.0403 149.82 36.4061 149.506 37.591C147.234 46.091 147.448 55.065 150.124 63.4467C150.639 65.0488 149.491 65.1415 148.579 65.5073L114.591 79.9317C112.089 80.9929 109.545 81.9923 107.098 83.1514C105.651 83.852 104.961 83.5635 104.148 82.1777C97.8702 71.4316 88.8221 64.0443 77.0036 60.1033C67.143 56.7123 56.4356 56.6941 46.5636 60.0518C44.8179 60.6288 44.0403 60.4639 43.2163 58.63C40.1986 51.9329 36.9594 45.308 33.7409 38.6882C33.1487 37.4622 33.0869 36.7203 34.2559 35.6488C40.2656 30.1212 42.4645 23.2078 40.3325 15.3568C38.0357 7.00098 32.3402 1.95244 23.699 0.350307C23.4879 0.266892 23.2915 0.150382 23.117 0.00515267H18.3021C12.6374 1.12819 7.76576 3.52367 4.16611 8.24766C1.87449 11.2613 0.865151 14.7386 0 18.3087V23.1305C1.02994 26.989 2.20922 30.7445 4.96946 33.8303C10.011 39.497 16.2988 41.8307 23.7092 40.7489C25.3005 40.5171 25.7691 40.9601 26.3665 42.1862C29.513 48.9296 32.6749 55.6678 35.9552 62.3442C36.7123 63.8897 36.5681 64.6212 35.085 65.5537C27.186 70.4419 20.9233 77.5749 17.097 86.0414C10.0986 101.486 10.7732 116.704 19.0127 131.504C22.3074 137.511 26.9549 142.668 32.5873 146.567C34.0859 147.597 34.0293 148.406 33.2002 149.802C31.1969 153.177 29.3482 156.638 27.4582 160.075C27.0154 160.878 26.7218 161.455 25.4807 161.105C13.9145 157.931 1.7612 166.164 0.303831 178.105C0.238718 178.336 0.137938 178.555 0.00514688 178.754V183.092C0.561315 183.978 0.144194 184.967 0.324434 185.905C1.62216 192.71 5.80372 197.15 11.8443 200.071C20.3825 204.193 31.1763 201.488 37.0418 194.08C43.0876 186.445 43.4893 174.504 36.2848 167.158C35.121 165.973 34.8893 164.783 35.7699 163.274C37.3457 160.569 38.9009 157.849 40.3016 155.031C41.2543 153.12 42.3975 152.898 44.3647 153.645C51.7566 156.431 59.7104 157.396 67.5535 156.457C75.3967 155.518 82.8985 152.704 89.4247 148.252C90.8717 147.288 91.809 147.221 93.0964 148.607C97.2522 153.068 101.233 157.689 105.481 162.063C106.717 163.33 106.393 164.386 105.399 165.633C97.0205 176.101 93.0397 187.975 94.2139 201.431C94.3787 203.317 93.8431 204.476 91.8244 204.883C87.5759 205.748 83.3737 206.815 79.1767 207.891C77.2868 208.381 76.0869 207.933 74.9746 206.191C67.0131 193.58 48.4639 194.029 40.4303 205.578C35.2806 212.95 35.0901 222.955 40.3428 230.177C45.6728 237.497 55.1791 240.8 63.6143 238.059C72.2349 235.262 77.1632 229.209 78.4609 220.276C78.739 218.39 79.5166 217.509 81.3551 217.066C85.5727 216.036 89.8315 215.232 94.0027 214.042C95.9545 213.481 96.8866 214.089 97.6075 215.984C99.7808 221.712 103.1 226.936 107.361 231.336C117.568 241.917 129.881 247.239 144.794 246.992C160.614 246.729 173.411 240.424 182.902 228.209C195.2 212.425 197.028 194.925 189.082 176.518C188.376 174.896 188.484 173.943 190.05 172.943C196.183 168.976 202.347 165.056 208.403 160.976C211.107 159.158 211.128 159.209 213.903 161.136C218.76 164.505 224.203 165.829 229.929 164.644C237.788 163.016 243.746 158.385 245.94 150.585C248.175 142.6 247.098 134.904 240.574 128.676ZM119.195 32.8567C117.57 32.8581 115.961 32.5371 114.461 31.9123C112.961 31.2875 111.6 30.3713 110.456 29.2166C109.312 28.062 108.409 26.6918 107.798 25.1856C107.187 23.6793 106.881 22.0668 106.898 20.4414C106.918 18.014 107.656 15.647 109.019 13.6385C110.382 11.63 112.308 10.07 114.556 9.15487C116.803 8.23978 119.271 8.01062 121.649 8.49625C124.026 8.98187 126.207 10.1606 127.916 11.8838C129.625 13.6071 130.786 15.7978 131.253 18.1799C131.719 20.5621 131.47 23.0291 130.538 25.2701C129.605 27.5112 128.031 29.426 126.012 30.7733C123.994 32.1206 121.622 32.8401 119.195 32.8412V32.8567ZM20.4907 32.8567C18.0612 32.8505 15.6879 32.125 13.6701 30.7714C11.6522 29.4179 10.0801 27.497 9.15207 25.2509C8.224 23.0049 7.98148 20.5342 8.45509 18.1505C8.9287 15.7667 10.0972 13.5766 11.8134 11.8563C13.5295 10.136 15.7164 8.96244 18.0983 8.48368C20.4801 8.00493 22.9504 8.24239 25.1976 9.1661C27.4448 10.0898 29.3683 11.6584 30.7255 13.6742C32.0828 15.6899 32.813 18.0626 32.8242 20.4929C32.8161 23.765 31.5149 26.9012 29.2044 29.2174C26.8939 31.5335 23.7616 32.8417 20.4907 32.8567ZM20.3516 193.22C18.7238 193.215 17.1131 192.888 15.6128 192.256C14.1126 191.624 12.7528 190.7 11.6123 189.538C10.4719 188.376 9.57346 186.999 8.96926 185.487C8.36507 183.975 8.06712 182.358 8.09269 180.73C8.11827 179.102 8.46687 177.495 9.11826 176.002C9.76964 174.51 10.7108 173.162 11.8872 172.036C13.0636 170.911 14.4518 170.03 15.9711 169.446C17.4905 168.861 19.1107 168.584 20.7379 168.631C23.9687 168.725 27.0329 170.087 29.2669 172.424C31.501 174.76 32.7251 177.883 32.6744 181.116C32.6236 184.349 31.3019 187.432 28.9956 189.697C26.6893 191.963 23.5838 193.228 20.3516 193.22ZM57.548 230.275C54.2747 230.234 51.1497 228.903 48.8519 226.571C46.5541 224.238 45.2692 221.093 45.2762 217.818C45.3049 214.557 46.6275 211.441 48.953 209.155C50.1045 208.023 51.4676 207.129 52.9644 206.524C54.4612 205.92 56.0625 205.616 57.6767 205.63C59.291 205.644 60.8866 205.976 62.3726 206.607C63.8585 207.238 65.2056 208.156 66.337 209.308C67.4684 210.46 68.362 211.823 68.9666 213.321C69.5712 214.818 69.8751 216.42 69.8609 218.035C69.7984 221.275 68.4786 224.364 66.1808 226.648C63.883 228.932 60.7871 230.233 57.548 230.275ZM220.217 83.3935C207.152 92.723 187.29 92.7127 174.323 83.3935C173.21 82.595 173.231 81.8481 173.524 80.7817C175.883 71.9468 183.824 66.0637 193.804 65.8112C195.004 65.7803 196.209 65.8112 197.409 65.8112C203.218 65.5228 208.764 66.2388 213.548 69.9325C217.222 72.7011 219.876 76.6082 221.097 81.0444C221.396 82.1932 221.139 82.7393 220.217 83.3935ZM184.962 45.2719C184.962 38.5234 190.658 32.8052 197.321 32.9082C199.751 32.9184 202.124 33.6478 204.14 35.0046C206.156 36.3614 207.725 38.2848 208.65 40.5325C209.576 42.7801 209.815 45.2514 209.338 47.635C208.862 50.0185 207.691 52.2076 205.973 53.9264C204.254 55.6452 202.066 56.8168 199.683 57.2935C197.301 57.7702 194.83 57.5307 192.584 56.6052C190.337 55.6797 188.414 54.1096 187.058 52.0928C185.701 50.076 184.972 47.7027 184.962 45.2719ZM165.908 22.8626C180.78 5.25975 207.41 3.34337 224.229 18.3087C242.252 34.3558 242.252 60.5515 228.42 75.8207C220.758 64.3636 220.758 64.3636 212.034 59.5006C216.509 54.519 218.538 48.708 217.518 42.0625C216.787 37.0894 214.202 32.5771 210.283 29.4309C202.332 22.8214 190.833 23.1923 183.118 30.4612C176.475 36.6997 173.334 48.9811 182.511 59.6294C175.002 62.9212 169.575 68.2788 166.402 75.8671C155.032 64.5388 150.953 40.5686 165.898 22.8781L165.908 22.8626ZM84.6715 140.813C77.9678 145.423 70.0387 147.922 61.9039 147.987C53.7692 148.052 45.8011 145.681 39.0245 141.179C37.7576 140.323 37.4384 139.633 37.9018 138.088C39.148 133.956 41.6552 130.318 45.0721 127.683C48.489 125.048 52.6443 123.549 56.9557 123.395C58.4749 123.323 59.9992 123.395 61.9716 123.395C67.5127 123.03 73.2134 123.823 78.0953 127.697C81.718 130.525 84.3021 134.474 85.4439 138.927C85.7323 139.958 85.4439 140.287 84.6715 140.813ZM49.2209 102.691C49.2832 99.4138 50.6408 96.2945 52.9967 94.016C55.3526 91.7374 58.5148 90.4853 61.7913 90.5336C65.0244 90.5865 68.1055 91.9159 70.3628 94.2319C72.6201 96.5479 73.8706 99.6628 73.8416 102.897C73.8053 106.136 72.4998 109.232 70.2059 111.518C67.912 113.804 64.8129 115.098 61.575 115.122C54.8444 115.143 49.0973 109.357 49.2209 102.691ZM92.5711 133.693C89.4813 126.332 84.5118 120.979 77.4207 117.724C75.8758 117.002 76.8491 116.41 77.3434 115.807C80.9843 111.367 82.3541 106.303 81.9112 100.584C80.8556 86.979 65.1592 78.0977 52.8926 84.2435C40.626 90.3893 37.3354 104.876 45.7242 115.72C46.2392 116.364 47.367 116.868 45.6624 117.78C37.5929 122.051 34.5803 125.286 30.6871 133.333C19.5946 122.386 15.3925 98.6061 29.9146 80.8177C44.272 63.1994 71.2101 60.773 88.2042 75.5631C105.574 90.6984 107.665 117.291 92.5711 133.693ZM98.6632 141.606C97.4273 140.298 98.3182 139.736 99.0134 138.927C104.405 132.739 108.128 125.276 109.828 117.244C111.586 109.382 111.299 101.2 108.994 93.4803C108.53 91.9348 108.829 91.2806 110.327 90.6521C124.19 84.8583 138.029 79.0061 151.844 73.0956C153.132 72.5443 153.806 72.4155 154.63 73.8734C159.461 82.3993 166.356 88.813 175.049 93.3103C175.631 93.6091 176.46 93.676 176.594 94.4642C176.408 95.0206 176.269 95.4946 176.11 95.9324C169.875 113.231 163.647 130.532 157.427 147.834C156.912 149.246 156.397 149.802 154.744 149.426C140.324 146.14 127.115 148.911 115.091 157.452C114.205 158.081 113.7 158.122 112.928 157.257C108.216 151.997 103.504 146.742 98.6632 141.606ZM166.912 231.285C153.6 240.645 135.144 240.841 121.44 231.8C120.009 230.852 119.653 229.986 120.158 228.328C121.395 224.369 123.801 220.878 127.059 218.314C130.318 215.751 134.277 214.234 138.414 213.965C140.247 213.872 142.096 213.965 143.811 213.965C149.851 213.512 155.434 214.362 160.29 218.174C163.864 220.932 166.437 224.787 167.613 229.147C167.839 230.007 167.875 230.625 166.912 231.285ZM131.472 193.282C131.468 191.667 131.783 190.067 132.397 188.574C133.011 187.08 133.913 185.723 135.052 184.578C136.191 183.434 137.544 182.525 139.034 181.903C140.524 181.282 142.122 180.96 143.736 180.956C145.35 180.953 146.949 181.267 148.442 181.882C149.935 182.496 151.292 183.399 152.436 184.538C153.58 185.677 154.489 187.031 155.11 188.521C155.731 190.012 156.053 191.61 156.057 193.225C156.057 200.02 150.392 205.687 143.672 205.589C140.434 205.538 137.345 204.221 135.065 201.921C132.786 199.621 131.496 196.52 131.472 193.282ZM174.905 223.928C167.839 212.904 167.839 212.904 158.57 207.5C163.071 202.348 165.125 196.45 163.905 189.619C163.072 184.748 160.465 180.358 156.587 177.296C152.714 174.172 147.835 172.568 142.864 172.783C137.893 172.998 133.171 175.018 129.582 178.466C123.037 184.648 119.731 196.795 128.995 207.624C121.543 210.9 116.121 216.191 112.954 223.738C102.325 213.682 97.3758 189.974 111.707 171.779C126.039 153.584 153.58 151.09 170.836 166.396C189.035 182.541 188.675 208.917 174.905 223.928ZM226 156.206C224.377 156.203 222.771 155.878 221.274 155.249C219.778 154.62 218.422 153.699 217.284 152.541C216.147 151.383 215.251 150.011 214.648 148.503C214.046 146.995 213.749 145.383 213.775 143.76C213.832 140.524 215.154 137.439 217.456 135.165C219.758 132.891 222.858 131.609 226.093 131.592C229.328 131.648 232.415 132.955 234.708 135.239C237 137.523 238.32 140.606 238.39 143.842C238.388 145.467 238.066 147.076 237.442 148.576C236.818 150.076 235.905 151.439 234.754 152.585C233.603 153.732 232.238 154.641 230.736 155.26C229.234 155.878 227.624 156.194 226 156.19V156.206Z"/>
</mask>
<path d="M240.574 128.676C233.838 122.241 223.858 120.948 215.443 125.703C207.605 130.129 203.3 139.891 205.484 148.576C205.952 150.431 205.602 151.605 203.995 152.631C197.496 156.776 191.035 160.974 184.612 165.226C183.402 166.03 182.516 166.019 181.522 164.819C177.696 160.183 172.984 156.602 167.793 153.62C165.29 152.177 165.275 152.121 166.217 149.498C172.077 133.013 178.123 116.585 183.958 100.085C184.596 98.2661 185.456 97.7973 187.341 98.2146C193.067 99.4903 198.982 99.6651 204.773 98.7297C216.823 96.7979 226.917 91.2651 234.93 82.1211C241.032 75.1562 245.116 67.0476 246.331 57.816C247.758 46.972 246.97 36.3237 241.624 26.4533C236.397 16.7838 229.002 9.33979 219.063 4.47156C213.749 1.89578 208.213 0.221517 202.286 0H196.502C195.782 0.777886 194.875 0.437883 194.015 0.412125H191.626C181.048 1.47335 171.974 5.87278 164.162 12.951C159.685 16.9889 156.001 21.8265 153.296 27.2157C152.807 28.1945 152.421 28.4624 151.319 28.0194C147.827 26.6336 144.284 25.3715 140.741 24.1248C139.845 23.8105 139.459 23.4242 139.562 22.4093C140.69 11.3283 132.353 1.41668 121.765 0.257578C121.626 0.257578 121.502 0.0927284 121.368 0.0103034H117.037C111.64 1.04062 106.913 3.24033 103.319 7.63462C96.0626 16.5056 97.4891 29.2969 106.666 36.7307C115.235 43.6698 128.387 42.1553 135.159 33.243C136.431 31.5688 137.368 31.5585 139.021 32.2127C142.111 33.4749 145.314 34.5722 148.476 35.6952C149.439 36.0403 149.82 36.4061 149.506 37.591C147.234 46.091 147.448 55.065 150.124 63.4467C150.639 65.0488 149.491 65.1415 148.579 65.5073L114.591 79.9317C112.089 80.9929 109.545 81.9923 107.098 83.1514C105.651 83.852 104.961 83.5635 104.148 82.1777C97.8702 71.4316 88.8221 64.0443 77.0036 60.1033C67.143 56.7123 56.4356 56.6941 46.5636 60.0518C44.8179 60.6288 44.0403 60.4639 43.2163 58.63C40.1986 51.9329 36.9594 45.308 33.7409 38.6882C33.1487 37.4622 33.0869 36.7203 34.2559 35.6488C40.2656 30.1212 42.4645 23.2078 40.3325 15.3568C38.0357 7.00098 32.3402 1.95244 23.699 0.350307C23.4879 0.266892 23.2915 0.150382 23.117 0.00515267H18.3021C12.6374 1.12819 7.76576 3.52367 4.16611 8.24766C1.87449 11.2613 0.865151 14.7386 0 18.3087V23.1305C1.02994 26.989 2.20922 30.7445 4.96946 33.8303C10.011 39.497 16.2988 41.8307 23.7092 40.7489C25.3005 40.5171 25.7691 40.9601 26.3665 42.1862C29.513 48.9296 32.6749 55.6678 35.9552 62.3442C36.7123 63.8897 36.5681 64.6212 35.085 65.5537C27.186 70.4419 20.9233 77.5749 17.097 86.0414C10.0986 101.486 10.7732 116.704 19.0127 131.504C22.3074 137.511 26.9549 142.668 32.5873 146.567C34.0859 147.597 34.0293 148.406 33.2002 149.802C31.1969 153.177 29.3482 156.638 27.4582 160.075C27.0154 160.878 26.7218 161.455 25.4807 161.105C13.9145 157.931 1.7612 166.164 0.303831 178.105C0.238718 178.336 0.137938 178.555 0.00514688 178.754V183.092C0.561315 183.978 0.144194 184.967 0.324434 185.905C1.62216 192.71 5.80372 197.15 11.8443 200.071C20.3825 204.193 31.1763 201.488 37.0418 194.08C43.0876 186.445 43.4893 174.504 36.2848 167.158C35.121 165.973 34.8893 164.783 35.7699 163.274C37.3457 160.569 38.9009 157.849 40.3016 155.031C41.2543 153.12 42.3975 152.898 44.3647 153.645C51.7566 156.431 59.7104 157.396 67.5535 156.457C75.3967 155.518 82.8985 152.704 89.4247 148.252C90.8717 147.288 91.809 147.221 93.0964 148.607C97.2522 153.068 101.233 157.689 105.481 162.063C106.717 163.33 106.393 164.386 105.399 165.633C97.0205 176.101 93.0397 187.975 94.2139 201.431C94.3787 203.317 93.8431 204.476 91.8244 204.883C87.5759 205.748 83.3737 206.815 79.1767 207.891C77.2868 208.381 76.0869 207.933 74.9746 206.191C67.0131 193.58 48.4639 194.029 40.4303 205.578C35.2806 212.95 35.0901 222.955 40.3428 230.177C45.6728 237.497 55.1791 240.8 63.6143 238.059C72.2349 235.262 77.1632 229.209 78.4609 220.276C78.739 218.39 79.5166 217.509 81.3551 217.066C85.5727 216.036 89.8315 215.232 94.0027 214.042C95.9545 213.481 96.8866 214.089 97.6075 215.984C99.7808 221.712 103.1 226.936 107.361 231.336C117.568 241.917 129.881 247.239 144.794 246.992C160.614 246.729 173.411 240.424 182.902 228.209C195.2 212.425 197.028 194.925 189.082 176.518C188.376 174.896 188.484 173.943 190.05 172.943C196.183 168.976 202.347 165.056 208.403 160.976C211.107 159.158 211.128 159.209 213.903 161.136C218.76 164.505 224.203 165.829 229.929 164.644C237.788 163.016 243.746 158.385 245.94 150.585C248.175 142.6 247.098 134.904 240.574 128.676ZM119.195 32.8567C117.57 32.8581 115.961 32.5371 114.461 31.9123C112.961 31.2875 111.6 30.3713 110.456 29.2166C109.312 28.062 108.409 26.6918 107.798 25.1856C107.187 23.6793 106.881 22.0668 106.898 20.4414C106.918 18.014 107.656 15.647 109.019 13.6385C110.382 11.63 112.308 10.07 114.556 9.15487C116.803 8.23978 119.271 8.01062 121.649 8.49625C124.026 8.98187 126.207 10.1606 127.916 11.8838C129.625 13.6071 130.786 15.7978 131.253 18.1799C131.719 20.5621 131.47 23.0291 130.538 25.2701C129.605 27.5112 128.031 29.426 126.012 30.7733C123.994 32.1206 121.622 32.8401 119.195 32.8412V32.8567ZM20.4907 32.8567C18.0612 32.8505 15.6879 32.125 13.6701 30.7714C11.6522 29.4179 10.0801 27.497 9.15207 25.2509C8.224 23.0049 7.98148 20.5342 8.45509 18.1505C8.9287 15.7667 10.0972 13.5766 11.8134 11.8563C13.5295 10.136 15.7164 8.96244 18.0983 8.48368C20.4801 8.00493 22.9504 8.24239 25.1976 9.1661C27.4448 10.0898 29.3683 11.6584 30.7255 13.6742C32.0828 15.6899 32.813 18.0626 32.8242 20.4929C32.8161 23.765 31.5149 26.9012 29.2044 29.2174C26.8939 31.5335 23.7616 32.8417 20.4907 32.8567ZM20.3516 193.22C18.7238 193.215 17.1131 192.888 15.6128 192.256C14.1126 191.624 12.7528 190.7 11.6123 189.538C10.4719 188.376 9.57346 186.999 8.96926 185.487C8.36507 183.975 8.06712 182.358 8.09269 180.73C8.11827 179.102 8.46687 177.495 9.11826 176.002C9.76964 174.51 10.7108 173.162 11.8872 172.036C13.0636 170.911 14.4518 170.03 15.9711 169.446C17.4905 168.861 19.1107 168.584 20.7379 168.631C23.9687 168.725 27.0329 170.087 29.2669 172.424C31.501 174.76 32.7251 177.883 32.6744 181.116C32.6236 184.349 31.3019 187.432 28.9956 189.697C26.6893 191.963 23.5838 193.228 20.3516 193.22ZM57.548 230.275C54.2747 230.234 51.1497 228.903 48.8519 226.571C46.5541 224.238 45.2692 221.093 45.2762 217.818C45.3049 214.557 46.6275 211.441 48.953 209.155C50.1045 208.023 51.4676 207.129 52.9644 206.524C54.4612 205.92 56.0625 205.616 57.6767 205.63C59.291 205.644 60.8866 205.976 62.3726 206.607C63.8585 207.238 65.2056 208.156 66.337 209.308C67.4684 210.46 68.362 211.823 68.9666 213.321C69.5712 214.818 69.8751 216.42 69.8609 218.035C69.7984 221.275 68.4786 224.364 66.1808 226.648C63.883 228.932 60.7871 230.233 57.548 230.275ZM220.217 83.3935C207.152 92.723 187.29 92.7127 174.323 83.3935C173.21 82.595 173.231 81.8481 173.524 80.7817C175.883 71.9468 183.824 66.0637 193.804 65.8112C195.004 65.7803 196.209 65.8112 197.409 65.8112C203.218 65.5228 208.764 66.2388 213.548 69.9325C217.222 72.7011 219.876 76.6082 221.097 81.0444C221.396 82.1932 221.139 82.7393 220.217 83.3935ZM184.962 45.2719C184.962 38.5234 190.658 32.8052 197.321 32.9082C199.751 32.9184 202.124 33.6478 204.14 35.0046C206.156 36.3614 207.725 38.2848 208.65 40.5325C209.576 42.7801 209.815 45.2514 209.338 47.635C208.862 50.0185 207.691 52.2076 205.973 53.9264C204.254 55.6452 202.066 56.8168 199.683 57.2935C197.301 57.7702 194.83 57.5307 192.584 56.6052C190.337 55.6797 188.414 54.1096 187.058 52.0928C185.701 50.076 184.972 47.7027 184.962 45.2719ZM165.908 22.8626C180.78 5.25975 207.41 3.34337 224.229 18.3087C242.252 34.3558 242.252 60.5515 228.42 75.8207C220.758 64.3636 220.758 64.3636 212.034 59.5006C216.509 54.519 218.538 48.708 217.518 42.0625C216.787 37.0894 214.202 32.5771 210.283 29.4309C202.332 22.8214 190.833 23.1923 183.118 30.4612C176.475 36.6997 173.334 48.9811 182.511 59.6294C175.002 62.9212 169.575 68.2788 166.402 75.8671C155.032 64.5388 150.953 40.5686 165.898 22.8781L165.908 22.8626ZM84.6715 140.813C77.9678 145.423 70.0387 147.922 61.9039 147.987C53.7692 148.052 45.8011 145.681 39.0245 141.179C37.7576 140.323 37.4384 139.633 37.9018 138.088C39.148 133.956 41.6552 130.318 45.0721 127.683C48.489 125.048 52.6443 123.549 56.9557 123.395C58.4749 123.323 59.9992 123.395 61.9716 123.395C67.5127 123.03 73.2134 123.823 78.0953 127.697C81.718 130.525 84.3021 134.474 85.4439 138.927C85.7323 139.958 85.4439 140.287 84.6715 140.813ZM49.2209 102.691C49.2832 99.4138 50.6408 96.2945 52.9967 94.016C55.3526 91.7374 58.5148 90.4853 61.7913 90.5336C65.0244 90.5865 68.1055 91.9159 70.3628 94.2319C72.6201 96.5479 73.8706 99.6628 73.8416 102.897C73.8053 106.136 72.4998 109.232 70.2059 111.518C67.912 113.804 64.8129 115.098 61.575 115.122C54.8444 115.143 49.0973 109.357 49.2209 102.691ZM92.5711 133.693C89.4813 126.332 84.5118 120.979 77.4207 117.724C75.8758 117.002 76.8491 116.41 77.3434 115.807C80.9843 111.367 82.3541 106.303 81.9112 100.584C80.8556 86.979 65.1592 78.0977 52.8926 84.2435C40.626 90.3893 37.3354 104.876 45.7242 115.72C46.2392 116.364 47.367 116.868 45.6624 117.78C37.5929 122.051 34.5803 125.286 30.6871 133.333C19.5946 122.386 15.3925 98.6061 29.9146 80.8177C44.272 63.1994 71.2101 60.773 88.2042 75.5631C105.574 90.6984 107.665 117.291 92.5711 133.693ZM98.6632 141.606C97.4273 140.298 98.3182 139.736 99.0134 138.927C104.405 132.739 108.128 125.276 109.828 117.244C111.586 109.382 111.299 101.2 108.994 93.4803C108.53 91.9348 108.829 91.2806 110.327 90.6521C124.19 84.8583 138.029 79.0061 151.844 73.0956C153.132 72.5443 153.806 72.4155 154.63 73.8734C159.461 82.3993 166.356 88.813 175.049 93.3103C175.631 93.6091 176.46 93.676 176.594 94.4642C176.408 95.0206 176.269 95.4946 176.11 95.9324C169.875 113.231 163.647 130.532 157.427 147.834C156.912 149.246 156.397 149.802 154.744 149.426C140.324 146.14 127.115 148.911 115.091 157.452C114.205 158.081 113.7 158.122 112.928 157.257C108.216 151.997 103.504 146.742 98.6632 141.606ZM166.912 231.285C153.6 240.645 135.144 240.841 121.44 231.8C120.009 230.852 119.653 229.986 120.158 228.328C121.395 224.369 123.801 220.878 127.059 218.314C130.318 215.751 134.277 214.234 138.414 213.965C140.247 213.872 142.096 213.965 143.811 213.965C149.851 213.512 155.434 214.362 160.29 218.174C163.864 220.932 166.437 224.787 167.613 229.147C167.839 230.007 167.875 230.625 166.912 231.285ZM131.472 193.282C131.468 191.667 131.783 190.067 132.397 188.574C133.011 187.08 133.913 185.723 135.052 184.578C136.191 183.434 137.544 182.525 139.034 181.903C140.524 181.282 142.122 180.96 143.736 180.956C145.35 180.953 146.949 181.267 148.442 181.882C149.935 182.496 151.292 183.399 152.436 184.538C153.58 185.677 154.489 187.031 155.11 188.521C155.731 190.012 156.053 191.61 156.057 193.225C156.057 200.02 150.392 205.687 143.672 205.589C140.434 205.538 137.345 204.221 135.065 201.921C132.786 199.621 131.496 196.52 131.472 193.282ZM174.905 223.928C167.839 212.904 167.839 212.904 158.57 207.5C163.071 202.348 165.125 196.45 163.905 189.619C163.072 184.748 160.465 180.358 156.587 177.296C152.714 174.172 147.835 172.568 142.864 172.783C137.893 172.998 133.171 175.018 129.582 178.466C123.037 184.648 119.731 196.795 128.995 207.624C121.543 210.9 116.121 216.191 112.954 223.738C102.325 213.682 97.3758 189.974 111.707 171.779C126.039 153.584 153.58 151.09 170.836 166.396C189.035 182.541 188.675 208.917 174.905 223.928ZM226 156.206C224.377 156.203 222.771 155.878 221.274 155.249C219.778 154.62 218.422 153.699 217.284 152.541C216.147 151.383 215.251 150.011 214.648 148.503C214.046 146.995 213.749 145.383 213.775 143.76C213.832 140.524 215.154 137.439 217.456 135.165C219.758 132.891 222.858 131.609 226.093 131.592C229.328 131.648 232.415 132.955 234.708 135.239C237 137.523 238.32 140.606 238.39 143.842C238.388 145.467 238.066 147.076 237.442 148.576C236.818 150.076 235.905 151.439 234.754 152.585C233.603 153.732 232.238 154.641 230.736 155.26C229.234 155.878 227.624 156.194 226 156.19V156.206Z" fill="#665775" stroke="#FFFCF5" stroke-width="4.6" mask="url(#path-1-inside-1_362_23717)"/>
</svg>
